<svg xmlns="http://www.w3.org/2000/svg" version="1.1" xmlns:xlink="http://www.w3.org/1999/xlink" xmlns:svgjs="http://svgjs.dev/svgjs" viewBox="0 -20.351999999999993 608.2297382812499 422.060984375"><style>text.label { fill:gray; }</style><rect width="65.1171875" height="26.341796875" x="0" y="222.68359375" fill="white" stroke="black"></rect><text x="9.48046875" y="240.0615234375" font-family="Helvetica" font-size="12" svgjs:data="{&quot;leading&quot;:&quot;1.3&quot;}"><tspan dy="0" x="9.48046875" svgjs:data="{&quot;newLined&quot;:true}">Item DB</tspan></text><path d="M151.32388641470016 301.9911512343023C151.29188641470014 298.65685123430234 171.34918641470017 299.1290512343023 171.36788641470017 301.8883512343023C171.29178641470014 306.3252512343023 151.22468641470016 306.1316512343023 151.32388641470016 301.9911512343023ZM151.35328641470016 302.6372512343023C153.50398641470017 305.6975512343023 168.74798641470016 306.0095512343023 171.35328641470016 302.6372512343023V322.6372512343023C164.82008641470014 325.30565123430233 158.16678641470014 325.57305123430234 151.35328641470016 322.6372512343023Z " fill="white" stroke="black"></path><svg width="2" height="0" style="opacity: 0; position: absolute; left: -100%; top: -100%; overflow: hidden;" focusable="false" aria-hidden="true"><path d="M510.41568984375 0L506.48058984375 0.0615M510.50798984375 -2.7822999999999998L506.57288984375 -2.7207999999999997M510.50798984375 -5.626099999999999L506.57288984375 -5.5645999999999995M510.50798984375 -8.4698L506.57288984375 -8.408299999999999M510.50798984375 -11.313499999999998L506.57288984375 -11.251999999999997M510.50798984375 -14.157199999999996L506.57288984375 -14.095699999999995M510.53878984375 -16.939499999999995L506.60368984375 -16.877999999999997M530.4910898437499 0.030700000000003058L526.55598984375 0.09220000000000306M530.4910898437499 -2.7822999999999967L526.55598984375 -2.7207999999999966M530.4910898437499 -5.6260999999999965L526.55598984375 -5.564599999999997M530.4910898437499 -8.469799999999996L526.55598984375 -8.408299999999995M530.4910898437499 -11.313499999999994L526.55598984375 -11.251999999999994M530.4910898437499 -14.157199999999992L526.55598984375 -14.095699999999992M530.4910898437499 -16.97019999999999L526.55598984375 -16.908699999999993M526.95568984375 -0.4303999999999917L527.01718984375 3.504700000000008M524.1119898437499 -0.4303999999999917L524.17348984375 3.504700000000008M521.26818984375 -0.4303999999999917L521.32968984375 3.504700000000008M518.4244898437499 -0.4303999999999917L518.48598984375 3.504700000000008M515.58078984375 -0.4303999999999917L515.64228984375 3.504700000000008M512.73708984375 -0.4303999999999917L512.7985898437499 3.504700000000008M509.89328984375 -0.4303999999999917L509.95478984375 3.504700000000008M526.98648984375 -20.351999999999993L527.04798984375 -16.416899999999995M524.1427898437499 -20.351999999999993L524.20428984375 -16.416899999999995M521.29898984375 -20.351999999999993L521.36048984375 -16.416899999999995M518.4552898437499 -20.351999999999993L518.51678984375 -16.416899999999995M515.61158984375 -20.351999999999993L515.67308984375 -16.416899999999995M512.76788984375 -20.351999999999993L512.8293898437499 -16.416899999999995M509.92408984375 -20.351999999999993L509.98558984375 -16.416899999999995M508.62318984374997 -18.365799999999993H528.62318984375V1.634200000000007H508.62318984374997Z "></path></svg><text x="179.9476868919003" y="316.4033203125" font-family="Helvetica" font-size="11" svgjs:data="{&quot;leading&quot;:&quot;1.3&quot;}"><tspan dy="0" x="179.9476868919003" svgjs:data="{&quot;newLined&quot;:true}">DB</tspan></text><rect width="123.4296875" height="26.341796875" x="230.3515625" y="375.3671875" fill="white" stroke="black"></rect><text x="240.11328125" y="392.7451171875" font-family="Helvetica" font-size="12" svgjs:data="{&quot;leading&quot;:&quot;1.3&quot;}"><tspan dy="0" x="240.11328125" svgjs:data="{&quot;newLined&quot;:true}">Operation handler</tspan></text><rect width="92.45703125" height="26.341796875" x="115.1171875" y="222.68359375" fill="white" stroke="black"></rect><text x="124.041015625" y="240.0615234375" font-family="Helvetica" font-size="12" svgjs:data="{&quot;leading&quot;:&quot;1.3&quot;}"><tspan dy="0" x="124.041015625" svgjs:data="{&quot;newLined&quot;:true}">Database DB</tspan></text><rect width="105.212890625" height="26.341796875" x="257.57421875" y="222.68359375" fill="white" stroke="black"></rect><text x="267.3720703125" y="240.0615234375" font-family="Helvetica" font-size="12" svgjs:data="{&quot;leading&quot;:&quot;1.3&quot;}"><tspan dy="0" x="267.3720703125" svgjs:data="{&quot;newLined&quot;:true}">Transaction DB</tspan></text><rect width="101.509765625" height="26.341796875" x="372.0322265625" y="299.025390625" fill="white" stroke="black"></rect><text x="382.447265625" y="316.4033203125" font-family="Helvetica" font-size="12" svgjs:data="{&quot;leading&quot;:&quot;1.3&quot;}"><tspan dy="0" x="382.447265625" svgjs:data="{&quot;newLined&quot;:true}">Express server</tspan></text><path d="M414.200959375 240.9307921875C419.674459375 242.68969218750001 425.147959375 242.6857921875 430.62145937500003 240.9194921875M414.90425937500004 230.4224921875C420.51925937500005 231.8804921875 425.949259375 231.7904921875 431.05525937500005 230.4954921875M413.130159375 235.8503921875C419.70725937500004 237.5622921875 426.111959375 237.1486921875 432.44405937500005 235.8390921875M432.44405937500005 235.8390921875C432.44405937500005 241.3618921875 428.33585937500004 245.4701921875 422.81295937500005 245.4701921875C417.29015937500003 245.4701921875 413.151159375 241.3619921875 413.151159375 235.8390921875C413.151159375 230.3162921875 417.29015937500003 226.2387921875 422.81295937500005 226.2387921875C428.33585937500004 226.2387921875 432.44405937500005 230.3162921875 432.44405937500005 235.8390921875Z " fill="white" stroke="black"></path><text x="429.57952500000005" y="240.0615234375" font-family="Helvetica" font-size="11" svgjs:data="{&quot;leading&quot;:&quot;1.3&quot;}"><tspan dy="0" x="429.57952500000005" svgjs:data="{&quot;newLined&quot;:true}">HTTP/HTTPS</tspan></text><rect width="145.44921875" height="26.341796875" x="254.36376953125" y="146.341796875" fill="white" stroke="black"></rect><text x="264.45556640625" y="163.7197265625" font-family="Helvetica" font-size="12" svgjs:data="{&quot;leading&quot;:&quot;1.3&quot;}"><tspan dy="0" x="264.45556640625" svgjs:data="{&quot;newLined&quot;:true}">Desktop web interface</tspan></text><rect width="137.345703125" height="26.341796875" x="449.81298828125" y="146.341796875" fill="white" stroke="black"></rect><text x="460.25537109375" y="163.7197265625" font-family="Helvetica" font-size="12" svgjs:data="{&quot;leading&quot;:&quot;1.3&quot;}"><tspan dy="0" x="460.25537109375" svgjs:data="{&quot;newLined&quot;:true}">Mobile web interface</tspan></text><path d="M510.41568984375 94.765446875L506.48058984375 94.82694687499999M510.50798984375 91.98314687499999L506.57288984375 92.044646875M510.50798984375 89.139346875L506.57288984375 89.200846875M510.50798984375 86.29564687499999L506.57288984375 86.357146875M510.50798984375 83.451946875L506.57288984375 83.513446875M510.50798984375 80.60824687499999L506.57288984375 80.669746875M510.53878984375 77.825946875L506.60368984375 77.887446875M530.4910898437499 94.796146875L526.55598984375 94.857646875M530.4910898437499 91.983146875L526.55598984375 92.044646875M530.4910898437499 89.139346875L526.55598984375 89.200846875M530.4910898437499 86.295646875L526.55598984375 86.357146875M530.4910898437499 83.451946875L526.55598984375 83.513446875M530.4910898437499 80.608246875L526.55598984375 80.669746875M530.4910898437499 77.795246875L526.55598984375 77.856746875M526.95568984375 94.335046875L527.01718984375 98.27014687500001M524.1119898437499 94.335046875L524.17348984375 98.27014687500001M521.26818984375 94.335046875L521.32968984375 98.27014687500001M518.4244898437499 94.335046875L518.48598984375 98.27014687500001M515.58078984375 94.335046875L515.64228984375 98.27014687500001M512.73708984375 94.335046875L512.7985898437499 98.27014687500001M509.89328984375 94.335046875L509.95478984375 98.27014687500001M526.98648984375 74.413446875L527.04798984375 78.348546875M524.1427898437499 74.413446875L524.20428984375 78.348546875M521.29898984375 74.413446875L521.36048984375 78.348546875M518.4552898437499 74.413446875L518.51678984375 78.348546875M515.61158984375 74.413446875L515.67308984375 78.348546875M512.76788984375 74.413446875L512.8293898437499 78.348546875M509.92408984375 74.413446875L509.98558984375 78.348546875M508.62318984374997 76.399646875H528.62318984375V96.399646875H508.62318984374997Z " fill="none" stroke="black"></path><text x="525.7512226562499" y="90.548828125" font-family="Helvetica" font-size="11" svgjs:data="{&quot;leading&quot;:&quot;1.3&quot;}"><tspan dy="0" x="525.7512226562499" svgjs:data="{&quot;newLined&quot;:true}">Shared memory</tspan></text><rect width="95.076171875" height="26.341796875" x="470.94775390625" y="0" fill="white" stroke="black"></rect><text x="480.43505859375" y="17.3779296875" font-family="Helvetica" font-size="12" svgjs:data="{&quot;leading&quot;:&quot;1.3&quot;}"><tspan dy="0" x="480.43505859375" svgjs:data="{&quot;newLined&quot;:true}">html5 qrcode</tspan></text><g><polyline points="32.55859375,249.025390625 32.55859375,274.025390625 151.345703125,309.23241335919846" stroke-width="0.25" stroke="black" fill="none" marker-end="url(#SvgjsMarker1000)"></polyline></g><defs><marker markerWidth="40" markerHeight="30" refX="20" refY="15" viewBox="0 0 40 30" orient="auto" id="SvgjsMarker1000"><path d="m 0 0 l 20 15 l -20 15 a 7.5 1 90 0 0 0 -30 z" fill="black" stroke-width="0.1" stroke="black"></path></marker><marker markerWidth="40" markerHeight="30" refX="20" refY="15" viewBox="0 0 40 30" orient="auto" id="SvgjsMarker1001"><path d="m 0 0 l 20 15 l -20 15 a 7.5 1 90 0 0 0 -30 z" fill="black" stroke-width="0.1" stroke="black"></path></marker><marker markerWidth="40" markerHeight="30" refX="20" refY="15" viewBox="0 0 40 30" orient="auto" id="SvgjsMarker1002"><path d="m 0 0 l 20 15 l -20 15 a 7.5 1 90 0 0 0 -30 z" fill="black" stroke-width="0.1" stroke="black"></path></marker><marker markerWidth="40" markerHeight="30" refX="20" refY="15" viewBox="0 0 40 30" orient="auto" id="SvgjsMarker1003"><path d="m 0 0 l 20 15 l -20 15 a 7.5 1 90 0 0 0 -30 z" fill="black" stroke-width="0.1" stroke="black"></path></marker><marker markerWidth="40" markerHeight="30" refX="20" refY="15" viewBox="0 0 40 30" orient="auto" id="SvgjsMarker1004"><path d="m 0 0 l 20 15 l -20 15 a 7.5 1 90 0 0 0 -30 z" fill="black" stroke-width="0.1" stroke="black"></path></marker><marker markerWidth="40" markerHeight="30" refX="20" refY="15" viewBox="0 0 40 30" orient="auto" id="SvgjsMarker1005"><path d="m 0 0 l 20 15 l -20 15 a 7.5 1 90 0 0 0 -30 z" fill="black" stroke-width="0.1" stroke="black"></path></marker><marker markerWidth="40" markerHeight="30" refX="20" refY="15" viewBox="0 0 40 30" orient="auto" id="SvgjsMarker1006"><path d="m 0 0 l 20 15 l -20 15 a 7.5 1 90 0 0 0 -30 z" fill="black" stroke-width="0.1" stroke="black"></path></marker><marker markerWidth="40" markerHeight="30" refX="20" refY="15" viewBox="0 0 40 30" orient="auto" id="SvgjsMarker1007"><path d="m 0 0 l 20 15 l -20 15 a 7.5 1 90 0 0 0 -30 z" fill="black" stroke-width="0.1" stroke="black"></path></marker><marker markerWidth="40" markerHeight="30" refX="20" refY="15" viewBox="0 0 40 30" orient="auto" id="SvgjsMarker1008"><path d="m 0 0 l 20 15 l -20 15 a 7.5 1 90 0 0 0 -30 z" fill="black" stroke-width="0.1" stroke="black"></path></marker><marker markerWidth="40" markerHeight="30" refX="20" refY="15" viewBox="0 0 40 30" orient="auto" id="SvgjsMarker1009"><path d="m 0 0 l 20 15 l -20 15 a 7.5 1 90 0 0 0 -30 z" fill="black" stroke-width="0.1" stroke="black"></path></marker><marker markerWidth="40" markerHeight="30" refX="20" refY="15" viewBox="0 0 40 30" orient="auto" id="SvgjsMarker1010"><path d="m 0 0 l 20 15 l -20 15 a 7.5 1 90 0 0 0 -30 z" fill="black" stroke-width="0.1" stroke="black"></path></marker></defs><g><polyline points="161.345703125,322.1962890625 161.345703125,350.3671875 246.96112513231702,375.3671875" stroke-width="0.25" stroke="black" fill="none" marker-end="url(#SvgjsMarker1001)"></polyline></g><g><polyline points="161.345703125,249.025390625 161.345703125,274.025390625 161.345703125,302.1962890625" stroke-width="0.25" stroke="black" fill="none" marker-end="url(#SvgjsMarker1002)"></polyline></g><g><polyline points="310.1806640625,249.025390625 310.1806640625,274.025390625 171.345703125,309.63164308167234" stroke-width="0.25" stroke="black" fill="none" marker-end="url(#SvgjsMarker1003)"></polyline></g><g><polyline points="420.787109375,325.3671875 420.787109375,350.3671875 335.171687367683,375.3671875" stroke-width="0.25" stroke="black" fill="none" marker-end="url(#SvgjsMarker1004)"></polyline><polyline points="339.171687367683,375.3671875 424.787109375,350.3671875 424.787109375,325.3671875" stroke-width="0.25" stroke="black" fill="none" stroke-dasharray="2" marker-end="url(#SvgjsMarker1005)"></polyline></g><g><polyline points="422.787109375,245.8544921875 422.787109375,274.025390625 422.787109375,299.025390625" stroke-width="0.25" stroke="black" fill="none" marker-end="url(#SvgjsMarker1006)"></polyline></g><g><polyline points="327.08837890625,172.68359375 327.08837890625,197.68359375 412.787109375,231.86583964733234" stroke-width="0.25" stroke="black" fill="none" marker-end="url(#SvgjsMarker1007)"></polyline></g><g><polyline points="518.48583984375,172.68359375 518.48583984375,197.68359375 432.787109375,231.86583964733234" stroke-width="0.25" stroke="black" fill="none" marker-end="url(#SvgjsMarker1008)"></polyline></g><g><polyline points="518.48583984375,96.341796875 518.48583984375,121.341796875 518.48583984375,146.341796875" stroke-width="0.25" stroke="black" fill="none" marker-end="url(#SvgjsMarker1009)"></polyline></g><g><polyline points="518.48583984375,26.341796875 518.48583984375,51.341796875 518.48583984375,76.341796875" stroke-width="0.25" stroke="black" fill="none" marker-end="url(#SvgjsMarker1010)"></polyline></g></svg>