<svg xmlns="http://www.w3.org/2000/svg" version="1.1" xmlns:xlink="http://www.w3.org/1999/xlink" xmlns:svgjs="http://svgjs.dev/svgjs" viewBox="0 0 3907.5 400"><rect width="300" height="40" x="2242.5" y="0" fill="white" stroke="black"></rect><text x="2269.57421875" y="26.20703125" svgjs:data="{&quot;leading&quot;:&quot;1.3&quot;}"><tspan dy="0" x="2269.57421875" svgjs:data="{&quot;newLined&quot;:true}">Warehouse management system</tspan></text><rect width="190" height="40" x="640" y="90" fill="white" stroke="black"></rect><text x="669.23828125" y="116.20703125" svgjs:data="{&quot;leading&quot;:&quot;1.3&quot;}"><tspan dy="0" x="669.23828125" svgjs:data="{&quot;newLined&quot;:true}">Manage the stock</tspan></text><rect width="190" height="40" x="200" y="180" fill="white" stroke="black"></rect><text x="234.67578125" y="206.20703125" svgjs:data="{&quot;leading&quot;:&quot;1.3&quot;}"><tspan dy="0" x="234.67578125" svgjs:data="{&quot;newLined&quot;:true}">Export the stock</tspan></text><rect width="160" height="40" x="0" y="270" fill="white" stroke="black"></rect><text x="28.9140625" y="296.20703125" svgjs:data="{&quot;leading&quot;:&quot;1.3&quot;}"><tspan dy="0" x="28.9140625" svgjs:data="{&quot;newLined&quot;:true}">Export as CSV</tspan></text><rect width="170" height="40" x="210" y="270" fill="white" stroke="black"></rect><text x="239.32421875" y="296.20703125" svgjs:data="{&quot;leading&quot;:&quot;1.3&quot;}"><tspan dy="0" x="239.32421875" svgjs:data="{&quot;newLined&quot;:true}">Export as JSON</tspan></text><rect width="160" height="40" x="430" y="270" fill="white" stroke="black"></rect><text x="457.12109375" y="296.20703125" svgjs:data="{&quot;leading&quot;:&quot;1.3&quot;}"><tspan dy="0" x="457.12109375" svgjs:data="{&quot;newLined&quot;:true}">Export as XML</tspan></text><rect width="160" height="40" x="875" y="180" fill="white" stroke="black"></rect><text x="905.7734375" y="206.20703125" svgjs:data="{&quot;leading&quot;:&quot;1.3&quot;}"><tspan dy="0" x="905.7734375" svgjs:data="{&quot;newLined&quot;:true}">See the stock</tspan></text><rect width="190" height="40" x="640" y="270" fill="white" stroke="black"></rect><text x="680.38671875" y="296.20703125" svgjs:data="{&quot;leading&quot;:&quot;1.3&quot;}"><tspan dy="0" x="680.38671875" svgjs:data="{&quot;newLined&quot;:true}">Filter the stock</tspan></text><rect width="170" height="40" x="532.5" y="360" fill="white" stroke="black"></rect><text x="564.3671875" y="386.20703125" svgjs:data="{&quot;leading&quot;:&quot;1.3&quot;}"><tspan dy="0" x="564.3671875" svgjs:data="{&quot;newLined&quot;:true}">Filter by name</tspan></text><rect width="200" height="40" x="752.5" y="360" fill="white" stroke="black"></rect><text x="790.0078125" y="386.20703125" svgjs:data="{&quot;leading&quot;:&quot;1.3&quot;}"><tspan dy="0" x="790.0078125" svgjs:data="{&quot;newLined&quot;:true}">Filter by barcode</tspan></text><rect width="170" height="40" x="1100" y="270" fill="white" stroke="black"></rect><text x="1133.828125" y="296.20703125" svgjs:data="{&quot;leading&quot;:&quot;1.3&quot;}"><tspan dy="0" x="1133.828125" svgjs:data="{&quot;newLined&quot;:true}">Sort the stock</tspan></text><rect width="150" height="40" x="1002.5" y="360" fill="white" stroke="black"></rect><text x="1027.80859375" y="386.20703125" svgjs:data="{&quot;leading&quot;:&quot;1.3&quot;}"><tspan dy="0" x="1027.80859375" svgjs:data="{&quot;newLined&quot;:true}">Sort by name</tspan></text><rect width="180" height="40" x="1202.5" y="360" fill="white" stroke="black"></rect><text x="1233.44921875" y="386.20703125" svgjs:data="{&quot;leading&quot;:&quot;1.3&quot;}"><tspan dy="0" x="1233.44921875" svgjs:data="{&quot;newLined&quot;:true}">Sort by barcode</tspan></text><rect width="170" height="40" x="1435" y="90" fill="white" stroke="black"></rect><text x="1465.19921875" y="116.20703125" svgjs:data="{&quot;leading&quot;:&quot;1.3&quot;}"><tspan dy="0" x="1465.19921875" svgjs:data="{&quot;newLined&quot;:true}">Authentication</tspan></text><rect width="170" height="40" x="2080" y="270" fill="white" stroke="black"></rect><text x="2104.5859375" y="296.20703125" svgjs:data="{&quot;leading&quot;:&quot;1.3&quot;}"><tspan dy="0" x="2104.5859375" svgjs:data="{&quot;newLined&quot;:true}">Account needed</tspan></text><rect width="200" height="40" x="1812.5" y="180" fill="white" stroke="black"></rect><text x="1839.7578125" y="206.20703125" svgjs:data="{&quot;leading&quot;:&quot;1.3&quot;}"><tspan dy="0" x="1839.7578125" svgjs:data="{&quot;newLined&quot;:true}">No account needed</tspan></text><rect width="120" height="40" x="2332.5" y="90" fill="white" stroke="black"></rect><text x="2354.57421875" y="116.20703125" svgjs:data="{&quot;leading&quot;:&quot;1.3&quot;}"><tspan dy="0" x="2354.57421875" svgjs:data="{&quot;newLined&quot;:true}">Operation</tspan></text><rect width="300" height="40" x="2062.5" y="180" fill="white" stroke="black"></rect><text x="2103.609375" y="206.20703125" svgjs:data="{&quot;leading&quot;:&quot;1.3&quot;}"><tspan dy="0" x="2103.609375" svgjs:data="{&quot;newLined&quot;:true}">Load an amount of a product</tspan></text><rect width="150" height="40" x="1350" y="270" fill="white" stroke="black"></rect><text x="1372.28515625" y="296.20703125" svgjs:data="{&quot;leading&quot;:&quot;1.3&quot;}"><tspan dy="0" x="1372.28515625" svgjs:data="{&quot;newLined&quot;:true}">Load by name</tspan></text><rect width="180" height="40" x="2300" y="270" fill="white" stroke="black"></rect><text x="2327.92578125" y="296.20703125" svgjs:data="{&quot;leading&quot;:&quot;1.3&quot;}"><tspan dy="0" x="2327.92578125" svgjs:data="{&quot;newLined&quot;:true}">Load by barcode</tspan></text><rect width="320" height="40" x="2412.5" y="180" fill="white" stroke="black"></rect><text x="2455.00390625" y="206.20703125" svgjs:data="{&quot;leading&quot;:&quot;1.3&quot;}"><tspan dy="0" x="2455.00390625" svgjs:data="{&quot;newLined&quot;:true}">Unload an amount of a product</tspan></text><rect width="170" height="40" x="2530" y="270" fill="white" stroke="black"></rect><text x="2553.6796875" y="296.20703125" svgjs:data="{&quot;leading&quot;:&quot;1.3&quot;}"><tspan dy="0" x="2553.6796875" svgjs:data="{&quot;newLined&quot;:true}">Unload by name</tspan></text><rect width="200" height="40" x="3707.5" y="270" fill="white" stroke="black"></rect><text x="3736.8203125" y="296.20703125" svgjs:data="{&quot;leading&quot;:&quot;1.3&quot;}"><tspan dy="0" x="3736.8203125" svgjs:data="{&quot;newLined&quot;:true}">Unload by barcode</tspan></text><rect width="100" height="40" x="2880" y="90" fill="white" stroke="black"></rect><text x="2901.3671875" y="116.20703125" svgjs:data="{&quot;leading&quot;:&quot;1.3&quot;}"><tspan dy="0" x="2901.3671875" svgjs:data="{&quot;newLined&quot;:true}">Storage</tspan></text><rect width="110" height="40" x="2782.5" y="180" fill="white" stroke="black"></rect><text x="2802.2890625" y="206.20703125" svgjs:data="{&quot;leading&quot;:&quot;1.3&quot;}"><tspan dy="0" x="2802.2890625" svgjs:data="{&quot;newLined&quot;:true}">Database</tspan></text><rect width="160" height="40" x="2942.5" y="180" fill="white" stroke="black"></rect><text x="2973.09765625" y="206.20703125" svgjs:data="{&quot;leading&quot;:&quot;1.3&quot;}"><tspan dy="0" x="2973.09765625" svgjs:data="{&quot;newLined&quot;:true}">Local storage</tspan></text><rect width="160" height="40" x="3610" y="90" fill="white" stroke="black"></rect><text x="3645.34765625" y="116.20703125" svgjs:data="{&quot;leading&quot;:&quot;1.3&quot;}"><tspan dy="0" x="3645.34765625" svgjs:data="{&quot;newLined&quot;:true}">Accessibility</tspan></text><rect width="290" height="40" x="3152.5" y="180" fill="white" stroke="black"></rect><text x="3193.19921875" y="206.20703125" svgjs:data="{&quot;leading&quot;:&quot;1.3&quot;}"><tspan dy="0" x="3193.19921875" svgjs:data="{&quot;newLined&quot;:true}">Accessible from everywhere</tspan></text><rect width="400" height="40" x="2750" y="270" fill="white" stroke="black"></rect><text x="2804.1640625" y="296.20703125" svgjs:data="{&quot;leading&quot;:&quot;1.3&quot;}"><tspan dy="0" x="2804.1640625" svgjs:data="{&quot;newLined&quot;:true}">Accessible only from the same network</tspan></text><polygon points="390,230 295,221 200,230" fill="white" stroke="black"></polygon><polygon points="787.2222222222222,320 735,311 682.7777777777778,320" fill="black" stroke="black"></polygon><polygon points="1232.7777777777778,320 1185,311 1137.2222222222222,320" fill="black" stroke="black"></polygon><polygon points="1605,140 1547.5,131 1490,140" fill="white" stroke="black"></polygon><polygon points="2266.9444444444443,230 2198.0555555555557,221 2129.1666666666665,230" fill="black" stroke="black"></polygon><polygon points="2708.0555555555557,230 2591.9444444444443,221 2475.8333333333335,230" fill="black" stroke="black"></polygon><polygon points="2971.1111111111113,140 2930,131 2888.8888888888887,140" fill="white" stroke="black"></polygon><polygon points="3730,140 3670,131 3610,140" fill="white" stroke="black"></polygon><polyline points="200,230 80,245 80,270" stroke="black" fill="none"></polyline><polyline points="295,230 295,245 295,270" stroke="black" fill="none"></polyline><polyline points="390,230 510,245 510,270" stroke="black" fill="none"></polyline><polyline points="640,119.7159090909091 295,155 295,180" stroke="black" fill="none" marker-end="url(#SvgjsMarker1000)"></polyline><defs><marker markerWidth="14" markerHeight="14" refX="7" refY="7" viewBox="0 0 14 14" orient="auto" id="SvgjsMarker1000"><circle r="5" cx="7" cy="7" fill="black" stroke-width="2" stroke="black"></circle></marker><marker markerWidth="14" markerHeight="14" refX="7" refY="7" viewBox="0 0 14 14" orient="auto" id="SvgjsMarker1001"><circle r="5" cx="7" cy="7" fill="white" stroke-width="2" stroke="black"></circle></marker><marker markerWidth="14" markerHeight="14" refX="7" refY="7" viewBox="0 0 14 14" orient="auto" id="SvgjsMarker1002"><circle r="5" cx="7" cy="7" fill="black" stroke-width="2" stroke="black"></circle></marker><marker markerWidth="14" markerHeight="14" refX="7" refY="7" viewBox="0 0 14 14" orient="auto" id="SvgjsMarker1003"><circle r="5" cx="7" cy="7" fill="black" stroke-width="2" stroke="black"></circle></marker><marker markerWidth="14" markerHeight="14" refX="7" refY="7" viewBox="0 0 14 14" orient="auto" id="SvgjsMarker1004"><circle r="5" cx="7" cy="7" fill="black" stroke-width="2" stroke="black"></circle></marker><marker markerWidth="14" markerHeight="14" refX="7" refY="7" viewBox="0 0 14 14" orient="auto" id="SvgjsMarker1005"><circle r="5" cx="7" cy="7" fill="black" stroke-width="2" stroke="black"></circle></marker><marker markerWidth="14" markerHeight="14" refX="7" refY="7" viewBox="0 0 14 14" orient="auto" id="SvgjsMarker1006"><circle r="5" cx="7" cy="7" fill="black" stroke-width="2" stroke="black"></circle></marker><marker markerWidth="14" markerHeight="14" refX="7" refY="7" viewBox="0 0 14 14" orient="auto" id="SvgjsMarker1007"><circle r="5" cx="7" cy="7" fill="black" stroke-width="2" stroke="black"></circle></marker><marker markerWidth="14" markerHeight="14" refX="7" refY="7" viewBox="0 0 14 14" orient="auto" id="SvgjsMarker1008"><circle r="5" cx="7" cy="7" fill="black" stroke-width="2" stroke="black"></circle></marker><marker markerWidth="14" markerHeight="14" refX="7" refY="7" viewBox="0 0 14 14" orient="auto" id="SvgjsMarker1009"><circle r="5" cx="7" cy="7" fill="black" stroke-width="2" stroke="black"></circle></marker><marker markerWidth="14" markerHeight="14" refX="7" refY="7" viewBox="0 0 14 14" orient="auto" id="SvgjsMarker1010"><circle r="5" cx="7" cy="7" fill="black" stroke-width="2" stroke="black"></circle></marker><marker markerWidth="14" markerHeight="14" refX="7" refY="7" viewBox="0 0 14 14" orient="auto" id="SvgjsMarker1011"><polygon points="0,14 7,7 0,0 2,7" fill="black" stroke-width="1" stroke="black"></polygon></marker><marker markerWidth="14" markerHeight="14" refX="7" refY="7" viewBox="0 0 14 14" orient="auto" id="SvgjsMarker1012"><polygon points="0,14 7,7 0,0 2,7" fill="black" stroke-width="1" stroke="black"></polygon></marker></defs><polyline points="682.7777777777778,320 617.5,335 617.5,360" stroke="black" fill="none"></polyline><polyline points="787.2222222222222,320 852.5,335 852.5,360" stroke="black" fill="none"></polyline><polyline points="875,216.36363636363637 735,245 735,270" stroke="black" fill="none" marker-end="url(#SvgjsMarker1001)"></polyline><polyline points="1137.2222222222222,320 1077.5,335 1077.5,360" stroke="black" fill="none"></polyline><polyline points="1232.7777777777778,320 1292.5,335 1292.5,360" stroke="black" fill="none"></polyline><polyline points="1035,215.65217391304347 1185,245 1185,270" stroke="black" fill="none" marker-end="url(#SvgjsMarker1002)"></polyline><polyline points="830,129.4318181818182 955,155 955,180" stroke="black" fill="none" marker-end="url(#SvgjsMarker1003)"></polyline><polyline points="2242.5,24.07239819004525 735,65 735,90" stroke="black" fill="none" marker-end="url(#SvgjsMarker1004)"></polyline><polyline points="1490,140 1452.5,155 1452.5,200 1452.5,245 2080,284.63157894736844" stroke="black" fill="none"></polyline><polyline points="1605,140 1912.5,155 1912.5,180" stroke="black" fill="none"></polyline><polyline points="2242.5,27.73638968481375 1520,65 1520,90" stroke="black" fill="none" marker-end="url(#SvgjsMarker1005)"></polyline><polyline points="2129.1666666666665,230 2025,245 1500,284.375" stroke="black" fill="none"></polyline><polyline points="2266.9444444444443,230 2335,245 2365.5555555555557,270" stroke="black" fill="none"></polyline><polyline points="2332.5,125 2212.5,155 2212.5,180" stroke="black" fill="none" marker-end="url(#SvgjsMarker1006)"></polyline><polyline points="2475.8333333333335,230 2355,245 2530,275.28846153846155" stroke="black" fill="none"></polyline><polyline points="2708.0555555555557,230 2877.5,245 3707.5,285.16129032258067" stroke="black" fill="none"></polyline><polyline points="2452.5,125 2572.5,155 2572.5,180" stroke="black" fill="none" marker-end="url(#SvgjsMarker1007)"></polyline><polyline points="2392.5,40 2392.5,65 2392.5,90" stroke="black" fill="none" marker-end="url(#SvgjsMarker1008)"></polyline><polyline points="2888.8888888888887,140 2837.5,155 2837.5,180" stroke="black" fill="none"></polyline><polyline points="2971.1111111111113,140 3022.5,155 3022.5,180" stroke="black" fill="none"></polyline><polyline points="2542.5,32.55813953488372 2930,65 2930,90" stroke="black" fill="none" marker-end="url(#SvgjsMarker1009)"></polyline><polyline points="3610,140 3297.5,155 3297.5,180" stroke="black" fill="none"></polyline><polyline points="3730,140 3780,155 3780,200 3780,245 3150,279.1566265060241" stroke="black" fill="none"></polyline><polyline points="2542.5,25.202312138728324 3690,65 3690,90" stroke="black" fill="none" marker-end="url(#SvgjsMarker1010)"></polyline><polyline points="3297.5,220 3297.5,245 2250,286.6225165562914" stroke="black" fill="none" stroke-dasharray="4" marker-end="url(#SvgjsMarker1011)"></polyline><polyline points="1912.5,220 1912.5,245 2750,281.32530120481925" stroke="black" fill="none" stroke-dasharray="4" marker-end="url(#SvgjsMarker1012)"></polyline></svg>