<?xml version="1.0" encoding="UTF-8" standalone="no"?><svg xmlns="http://www.w3.org/2000/svg" xmlns:xlink="http://www.w3.org/1999/xlink" contentScriptType="application/ecmascript" contentStyleType="text/css" height="1100px" preserveAspectRatio="none" style="width:1258px;height:1100px;" version="1.1" viewBox="0 0 1258 1100" width="1258px" zoomAndPan="magnify"><defs/><g><text fill="#000000" font-family="sans-serif" font-size="18" lengthAdjust="spacingAndGlyphs" textLength="111" x="577" y="16.708">Logical View</text><rect fill="#FFFFFF" height="288" style="stroke: #000000; stroke-width: 1.5;" width="312" x="227" y="44.9531"/><rect fill="#FFFFFF" height="10" style="stroke: #000000; stroke-width: 1.5;" width="15" x="519" y="49.9531"/><rect fill="#FFFFFF" height="2" style="stroke: #000000; stroke-width: 1.5;" width="4" x="517" y="51.9531"/><rect fill="#FFFFFF" height="2" style="stroke: #000000; stroke-width: 1.5;" width="4" x="517" y="55.9531"/><text fill="#000000" font-family="sans-serif" font-size="14" font-weight="bold" lengthAdjust="spacingAndGlyphs" textLength="73" x="346.5" y="70.9482">Database</text><rect fill="#F8F8F8" height="36.2969" style="stroke: #383838; stroke-width: 1.5;" width="83" x="268.5" y="280.9531"/><rect fill="#F8F8F8" height="5" style="stroke: #383838; stroke-width: 1.5;" width="10" x="263.5" y="285.9531"/><rect fill="#F8F8F8" height="5" style="stroke: #383838; stroke-width: 1.5;" width="10" x="263.5" y="307.25"/><text fill="#000000" font-family="sans-serif" font-size="14" lengthAdjust="spacingAndGlyphs" textLength="55" x="278.5" y="303.9482">Item DB</text><rect fill="#F8F8F8" height="36.2969" style="stroke: #383838; stroke-width: 1.5;" width="111" x="412.5" y="79.9531"/><rect fill="#F8F8F8" height="5" style="stroke: #383838; stroke-width: 1.5;" width="10" x="407.5" y="84.9531"/><rect fill="#F8F8F8" height="5" style="stroke: #383838; stroke-width: 1.5;" width="10" x="407.5" y="106.25"/><text fill="#000000" font-family="sans-serif" font-size="14" lengthAdjust="spacingAndGlyphs" textLength="83" x="422.5" y="102.9482">Barcode DB</text><rect fill="#F8F8F8" height="36.2969" style="stroke: #383838; stroke-width: 1.5;" width="134" x="243" y="79.9531"/><rect fill="#F8F8F8" height="5" style="stroke: #383838; stroke-width: 1.5;" width="10" x="238" y="84.9531"/><rect fill="#F8F8F8" height="5" style="stroke: #383838; stroke-width: 1.5;" width="10" x="238" y="106.25"/><text fill="#000000" font-family="sans-serif" font-size="14" lengthAdjust="spacingAndGlyphs" textLength="106" x="253" y="102.9482">Transaction DB</text><rect fill="#F8F8F8" height="36.2969" style="stroke: #383838; stroke-width: 1.5;" width="196" x="113" y="806.9531"/><rect fill="#F8F8F8" height="5" style="stroke: #383838; stroke-width: 1.5;" width="10" x="108" y="811.9531"/><rect fill="#F8F8F8" height="5" style="stroke: #383838; stroke-width: 1.5;" width="10" x="108" y="833.25"/><text fill="#000000" font-family="sans-serif" font-size="14" lengthAdjust="spacingAndGlyphs" textLength="176" x="123" y="829.9482">html5-qrcode &lt;external&gt;</text><ellipse cx="353" cy="824.9531" fill="#F8F8F8" rx="8" ry="8" style="stroke: #383838; stroke-width: 2.0;"/><ellipse cx="202" cy="298.9531" fill="#F8F8F8" rx="8" ry="8" style="stroke: #383838; stroke-width: 2.0;"/><ellipse cx="907" cy="298.9531" fill="#F8F8F8" rx="8" ry="8" style="stroke: #383838; stroke-width: 2.0;"/><ellipse cx="709" cy="298.9531" fill="#F8F8F8" rx="8" ry="8" style="stroke: #383838; stroke-width: 2.0;"/><rect fill="#F8F8F8" height="36.2969" style="stroke: #383838; stroke-width: 1.5;" width="176" x="647" y="806.9531"/><rect fill="#F8F8F8" height="5" style="stroke: #383838; stroke-width: 1.5;" width="10" x="642" y="811.9531"/><rect fill="#F8F8F8" height="5" style="stroke: #383838; stroke-width: 1.5;" width="10" x="642" y="833.25"/><text fill="#000000" font-family="sans-serif" font-size="14" lengthAdjust="spacingAndGlyphs" textLength="156" x="657" y="829.9482">Desktop web interface</text><rect fill="#F8F8F8" height="36.2969" style="stroke: #383838; stroke-width: 1.5;" width="162" x="397" y="806.9531"/><rect fill="#F8F8F8" height="5" style="stroke: #383838; stroke-width: 1.5;" width="10" x="392" y="811.9531"/><rect fill="#F8F8F8" height="5" style="stroke: #383838; stroke-width: 1.5;" width="10" x="392" y="833.25"/><text fill="#000000" font-family="sans-serif" font-size="14" lengthAdjust="spacingAndGlyphs" textLength="142" x="407" y="829.9482">Mobile web interface</text><rect fill="#F8F8F8" height="36.2969" style="stroke: #383838; stroke-width: 1.5;" width="144" x="637" y="481.9531"/><rect fill="#F8F8F8" height="5" style="stroke: #383838; stroke-width: 1.5;" width="10" x="632" y="486.9531"/><rect fill="#F8F8F8" height="5" style="stroke: #383838; stroke-width: 1.5;" width="10" x="632" y="508.25"/><text fill="#000000" font-family="sans-serif" font-size="14" lengthAdjust="spacingAndGlyphs" textLength="124" x="647" y="504.9482">Operation handler</text><ellipse cx="709" cy="662.4531" fill="#F8F8F8" rx="8" ry="8" style="stroke: #383838; stroke-width: 2.0;"/><rect fill="#F8F8F8" height="36.2969" style="stroke: #383838; stroke-width: 1.5;" width="123" x="541.5" y="644.4531"/><rect fill="#F8F8F8" height="5" style="stroke: #383838; stroke-width: 1.5;" width="10" x="536.5" y="649.4531"/><rect fill="#F8F8F8" height="5" style="stroke: #383838; stroke-width: 1.5;" width="10" x="536.5" y="670.75"/><text fill="#000000" font-family="sans-serif" font-size="14" lengthAdjust="spacingAndGlyphs" textLength="103" x="551.5" y="667.4482">Express Server</text><ellipse cx="603" cy="824.9531" fill="#F8F8F8" rx="8" ry="8" style="stroke: #383838; stroke-width: 2.0;"/><path d="M245.5,963.9531 L245.5,1027.3516 A0,0 0 0 0 245.5,1027.3516 L460.5,1027.3516 A0,0 0 0 0 460.5,1027.3516 L460.5,973.9531 L450.5,963.9531 L357,963.9531 L353,834.0831 L349,963.9531 L245.5,963.9531 A0,0 0 0 0 245.5,963.9531 " fill="#ECECEC" style="stroke: #383838; stroke-width: 1.0;"/><path d="M450.5,963.9531 L450.5,973.9531 L460.5,973.9531 L450.5,963.9531 " fill="#ECECEC" style="stroke: #383838; stroke-width: 1.0;"/><text fill="#000000" font-family="sans-serif" font-size="13" lengthAdjust="spacingAndGlyphs" textLength="72" x="251.5" y="981.02">operations:</text><line style="stroke: #383838; stroke-width: 1.0; stroke-dasharray: 1.0,2.0;" x1="246.5" x2="459.5" y1="984.0859" y2="984.0859"/><text fill="#000000" font-family="sans-serif" font-size="13" lengthAdjust="spacingAndGlyphs" textLength="194" x="251.5" y="1000.1528">start(camera, config, callback)</text><text fill="#000000" font-family="sans-serif" font-size="13" lengthAdjust="spacingAndGlyphs" textLength="38" x="251.5" y="1015.2856">stop()</text><path d="M530.5,902.9531 L530.5,1088.2813 A0,0 0 0 0 530.5,1088.2813 L675.5,1088.2813 A0,0 0 0 0 675.5,1088.2813 L675.5,912.9531 L665.5,902.9531 L607,902.9531 L603,834.0831 L599,902.9531 L530.5,902.9531 A0,0 0 0 0 530.5,902.9531 " fill="#ECECEC" style="stroke: #383838; stroke-width: 1.0;"/><path d="M665.5,902.9531 L665.5,912.9531 L675.5,912.9531 L665.5,902.9531 " fill="#ECECEC" style="stroke: #383838; stroke-width: 1.0;"/><text fill="#000000" font-family="sans-serif" font-size="13" lengthAdjust="spacingAndGlyphs" textLength="72" x="536.5" y="920.02">operations:</text><line style="stroke: #383838; stroke-width: 1.0; stroke-dasharray: 1.0,2.0;" x1="531.5" x2="674.5" y1="923.0859" y2="923.0859"/><text fill="#000000" font-family="sans-serif" font-size="13" lengthAdjust="spacingAndGlyphs" textLength="56" x="536.5" y="939.1528">POST(...)</text><text fill="#000000" font-family="sans-serif" font-size="13" lengthAdjust="spacingAndGlyphs" textLength="47" x="536.5" y="954.2856">GET(...)</text><text fill="#000000" font-family="sans-serif" font-size="13" lengthAdjust="spacingAndGlyphs" textLength="70" x="536.5" y="969.4185">DELETE(...)</text><line style="stroke: #383838; stroke-width: 1.0;" x1="531.5" x2="674.5" y1="976.4844" y2="976.4844"/><text fill="#000000" font-family="sans-serif" font-size="13" lengthAdjust="spacingAndGlyphs" textLength="47" x="536.5" y="992.5513">events:</text><line style="stroke: #383838; stroke-width: 1.0; stroke-dasharray: 1.0,2.0;" x1="531.5" x2="674.5" y1="999.6172" y2="999.6172"/><text fill="#000000" font-family="sans-serif" font-size="13" lengthAdjust="spacingAndGlyphs" textLength="46" x="536.5" y="1015.6841">started</text><text fill="#000000" font-family="sans-serif" font-size="13" lengthAdjust="spacingAndGlyphs" textLength="85" x="536.5" y="1030.8169">disconnected</text><text fill="#000000" font-family="sans-serif" font-size="13" lengthAdjust="spacingAndGlyphs" textLength="124" x="536.5" y="1045.9497">update_transaction</text><text fill="#000000" font-family="sans-serif" font-size="13" lengthAdjust="spacingAndGlyphs" textLength="89" x="536.5" y="1061.0825">item_updated</text><text fill="#000000" font-family="sans-serif" font-size="13" lengthAdjust="spacingAndGlyphs" textLength="61" x="536.5" y="1076.2153">new_item</text><path d="M753.5,577.9531 L753.5,658.4531 L718.09,662.4531 L753.5,666.4531 L753.5,747.2813 A0,0 0 0 0 753.5,747.2813 L1246.5,747.2813 A0,0 0 0 0 1246.5,747.2813 L1246.5,587.9531 L1236.5,577.9531 L753.5,577.9531 A0,0 0 0 0 753.5,577.9531 " fill="#ECECEC" style="stroke: #383838; stroke-width: 1.0;"/><path d="M1236.5,577.9531 L1236.5,587.9531 L1246.5,587.9531 L1236.5,577.9531 " fill="#ECECEC" style="stroke: #383838; stroke-width: 1.0;"/><text fill="#000000" font-family="sans-serif" font-size="13" lengthAdjust="spacingAndGlyphs" textLength="72" x="759.5" y="595.02">operations:</text><line style="stroke: #383838; stroke-width: 1.0; stroke-dasharray: 1.0,2.0;" x1="754.5" x2="1245.5" y1="598.0859" y2="598.0859"/><text fill="#000000" font-family="sans-serif" font-size="13" lengthAdjust="spacingAndGlyphs" textLength="68" x="759.5" y="614.1528">load(code)</text><text fill="#000000" font-family="sans-serif" font-size="13" lengthAdjust="spacingAndGlyphs" textLength="105" x="759.5" y="629.2856">load(itemName)</text><text fill="#000000" font-family="sans-serif" font-size="13" lengthAdjust="spacingAndGlyphs" textLength="84" x="759.5" y="644.4185">unload(code)</text><text fill="#000000" font-family="sans-serif" font-size="13" lengthAdjust="spacingAndGlyphs" textLength="121" x="759.5" y="659.5513">unload(itemName)</text><text fill="#000000" font-family="sans-serif" font-size="13" lengthAdjust="spacingAndGlyphs" textLength="94" x="759.5" y="674.6841">getInfo(itemId)</text><text fill="#000000" font-family="sans-serif" font-size="13" lengthAdjust="spacingAndGlyphs" textLength="92" x="759.5" y="689.8169">delete(codeId)</text><text fill="#000000" font-family="sans-serif" font-size="13" lengthAdjust="spacingAndGlyphs" textLength="90" x="759.5" y="704.9497">delete(itemId)</text><text fill="#000000" font-family="sans-serif" font-size="13" lengthAdjust="spacingAndGlyphs" textLength="403" x="759.5" y="720.0825">addItem(Name, Position, Description, MinThr, Quantity, Weight)</text><text fill="#000000" font-family="sans-serif" font-size="13" lengthAdjust="spacingAndGlyphs" textLength="472" x="759.5" y="735.2153">updateItem(itemId, Name, Position, Description, MinThr, Quantity, Weight)</text><path d="M6,175.9531 L6,421.8125 A0,0 0 0 0 6,421.8125 L158,421.8125 A0,0 0 0 0 158,421.8125 L158,302.9531 L192.8,298.9531 L158,294.9531 L158,185.9531 L148,175.9531 L6,175.9531 A0,0 0 0 0 6,175.9531 " fill="#ECECEC" style="stroke: #383838; stroke-width: 1.0;"/><path d="M148,175.9531 L148,185.9531 L158,185.9531 L148,175.9531 " fill="#ECECEC" style="stroke: #383838; stroke-width: 1.0;"/><text fill="#000000" font-family="sans-serif" font-size="13" lengthAdjust="spacingAndGlyphs" textLength="72" x="12" y="193.02">operations:</text><line style="stroke: #383838; stroke-width: 1.0; stroke-dasharray: 1.0,2.0;" x1="7" x2="157" y1="196.0859" y2="196.0859"/><text fill="#000000" font-family="sans-serif" font-size="13" lengthAdjust="spacingAndGlyphs" textLength="72" x="12" y="212.1528">insertOne()</text><text fill="#000000" font-family="sans-serif" font-size="13" lengthAdjust="spacingAndGlyphs" textLength="33" x="12" y="227.2856">find()</text><text fill="#000000" font-family="sans-serif" font-size="13" lengthAdjust="spacingAndGlyphs" textLength="59" x="12" y="242.4185">findOne()</text><text fill="#000000" font-family="sans-serif" font-size="13" lengthAdjust="spacingAndGlyphs" textLength="131" x="12" y="257.5513">findOneAndUpdate()</text><line style="stroke: #383838; stroke-width: 1.0;" x1="7" x2="157" y1="264.6172" y2="264.6172"/><text fill="#000000" font-family="sans-serif" font-size="13" lengthAdjust="spacingAndGlyphs" textLength="88" x="12" y="280.6841">data schema:</text><line style="stroke: #383838; stroke-width: 1.0; stroke-dasharray: 1.0,2.0;" x1="7" x2="157" y1="287.75" y2="287.75"/><text fill="#000000" font-family="sans-serif" font-size="13" lengthAdjust="spacingAndGlyphs" textLength="40" x="12" y="303.8169">itemId</text><text fill="#000000" font-family="sans-serif" font-size="13" lengthAdjust="spacingAndGlyphs" textLength="39" x="12" y="318.9497">Name</text><text fill="#000000" font-family="sans-serif" font-size="13" lengthAdjust="spacingAndGlyphs" textLength="50" x="12" y="334.0825">Position</text><text fill="#000000" font-family="sans-serif" font-size="13" lengthAdjust="spacingAndGlyphs" textLength="72" x="12" y="349.2153">Description</text><text fill="#000000" font-family="sans-serif" font-size="13" lengthAdjust="spacingAndGlyphs" textLength="42" x="12" y="364.3481">MinThr</text><text fill="#000000" font-family="sans-serif" font-size="13" lengthAdjust="spacingAndGlyphs" textLength="54" x="12" y="379.481">Quantity</text><text fill="#000000" font-family="sans-serif" font-size="13" lengthAdjust="spacingAndGlyphs" textLength="43" x="12" y="394.6138">Weight</text><text fill="#000000" font-family="sans-serif" font-size="13" lengthAdjust="spacingAndGlyphs" textLength="0" x="16" y="409.7466"/><path d="M753.5,213.9531 L753.5,384.1484 A0,0 0 0 0 753.5,384.1484 L862.5,384.1484 A0,0 0 0 0 862.5,384.1484 L862.5,302.9531 L897.97,298.9531 L862.5,294.9531 L862.5,223.9531 L852.5,213.9531 L753.5,213.9531 A0,0 0 0 0 753.5,213.9531 " fill="#ECECEC" style="stroke: #383838; stroke-width: 1.0;"/><path d="M852.5,213.9531 L852.5,223.9531 L862.5,223.9531 L852.5,213.9531 " fill="#ECECEC" style="stroke: #383838; stroke-width: 1.0;"/><text fill="#000000" font-family="sans-serif" font-size="13" lengthAdjust="spacingAndGlyphs" textLength="72" x="759.5" y="231.02">operations:</text><line style="stroke: #383838; stroke-width: 1.0; stroke-dasharray: 1.0,2.0;" x1="754.5" x2="861.5" y1="234.0859" y2="234.0859"/><text fill="#000000" font-family="sans-serif" font-size="13" lengthAdjust="spacingAndGlyphs" textLength="80" x="759.5" y="250.1528">insertMany()</text><text fill="#000000" font-family="sans-serif" font-size="13" lengthAdjust="spacingAndGlyphs" textLength="76" x="759.5" y="265.2856">deleteOne()</text><text fill="#000000" font-family="sans-serif" font-size="13" lengthAdjust="spacingAndGlyphs" textLength="33" x="759.5" y="280.4185">find()</text><line style="stroke: #383838; stroke-width: 1.0;" x1="754.5" x2="861.5" y1="287.4844" y2="287.4844"/><text fill="#000000" font-family="sans-serif" font-size="13" lengthAdjust="spacingAndGlyphs" textLength="88" x="759.5" y="303.5513">data schema:</text><line style="stroke: #383838; stroke-width: 1.0; stroke-dasharray: 1.0,2.0;" x1="754.5" x2="861.5" y1="310.6172" y2="310.6172"/><text fill="#000000" font-family="sans-serif" font-size="13" lengthAdjust="spacingAndGlyphs" textLength="42" x="759.5" y="326.6841">codeId</text><text fill="#000000" font-family="sans-serif" font-size="13" lengthAdjust="spacingAndGlyphs" textLength="31" x="759.5" y="341.8169">code</text><text fill="#000000" font-family="sans-serif" font-size="13" lengthAdjust="spacingAndGlyphs" textLength="59" x="759.5" y="356.9497">multiplier</text><text fill="#000000" font-family="sans-serif" font-size="13" lengthAdjust="spacingAndGlyphs" textLength="40" x="759.5" y="372.0825">itemId</text><path d="M555.5,190.9531 L555.5,406.5469 A0,0 0 0 0 555.5,406.5469 L664.5,406.5469 A0,0 0 0 0 664.5,406.5469 L664.5,302.9531 L699.97,298.9531 L664.5,294.9531 L664.5,200.9531 L654.5,190.9531 L555.5,190.9531 A0,0 0 0 0 555.5,190.9531 " fill="#ECECEC" style="stroke: #383838; stroke-width: 1.0;"/><path d="M654.5,190.9531 L654.5,200.9531 L664.5,200.9531 L654.5,190.9531 " fill="#ECECEC" style="stroke: #383838; stroke-width: 1.0;"/><text fill="#000000" font-family="sans-serif" font-size="13" lengthAdjust="spacingAndGlyphs" textLength="72" x="561.5" y="208.02">operations:</text><line style="stroke: #383838; stroke-width: 1.0; stroke-dasharray: 1.0,2.0;" x1="556.5" x2="663.5" y1="211.0859" y2="211.0859"/><text fill="#000000" font-family="sans-serif" font-size="13" lengthAdjust="spacingAndGlyphs" textLength="72" x="561.5" y="227.1528">insertOne()</text><text fill="#000000" font-family="sans-serif" font-size="13" lengthAdjust="spacingAndGlyphs" textLength="33" x="561.5" y="242.2856">find()</text><text fill="#000000" font-family="sans-serif" font-size="13" lengthAdjust="spacingAndGlyphs" textLength="59" x="561.5" y="257.4185">findOne()</text><text fill="#000000" font-family="sans-serif" font-size="13" lengthAdjust="spacingAndGlyphs" textLength="76" x="561.5" y="272.5513">deleteOne()</text><line style="stroke: #383838; stroke-width: 1.0;" x1="556.5" x2="663.5" y1="279.6172" y2="279.6172"/><text fill="#000000" font-family="sans-serif" font-size="13" lengthAdjust="spacingAndGlyphs" textLength="88" x="561.5" y="295.6841">data schema:</text><line style="stroke: #383838; stroke-width: 1.0; stroke-dasharray: 1.0,2.0;" x1="556.5" x2="663.5" y1="302.75" y2="302.75"/><text fill="#000000" font-family="sans-serif" font-size="13" lengthAdjust="spacingAndGlyphs" textLength="40" x="561.5" y="318.8169">itemId</text><text fill="#000000" font-family="sans-serif" font-size="13" lengthAdjust="spacingAndGlyphs" textLength="54" x="561.5" y="333.9497">Quantity</text><text fill="#000000" font-family="sans-serif" font-size="13" lengthAdjust="spacingAndGlyphs" textLength="43" x="561.5" y="349.0825">Weight</text><text fill="#000000" font-family="sans-serif" font-size="13" lengthAdjust="spacingAndGlyphs" textLength="63" x="561.5" y="364.2153">Operation</text><text fill="#000000" font-family="sans-serif" font-size="13" lengthAdjust="spacingAndGlyphs" textLength="31" x="561.5" y="379.3481">Date</text><text fill="#000000" font-family="sans-serif" font-size="13" lengthAdjust="spacingAndGlyphs" textLength="0" x="565.5" y="394.481"/><path d="M309.18,824.9531 C320.71,824.9531 332.23,824.9531 343.76,824.9531 " fill="none" id="QR-QRI" style="stroke: #383838; stroke-width: 1.0;"/><path d="M454.25,116.2631 C424.3,153.9931 353.43,243.2631 323.6,280.8231 " fill="none" id="BDB-PDB" style="stroke: #383838; stroke-width: 1.0;"/><path d="M398.8147,197.4656 A10,10 0 0 0 387.7387 188.6722" fill="#FFFFFF" style="stroke: #383838; stroke-width: 1.5;"/><ellipse cx="388.88" cy="198.6069" fill="#FFFFFF" rx="6" ry="6" style="stroke: #383838; stroke-width: 1.5;"/><path d="M310,116.2631 C310,153.9931 310,243.2631 310,280.8231 " fill="none" id="TDB-PDB" style="stroke: #383838; stroke-width: 1.0;"/><path d="M317.0711,191.5358 A10,10 0 0 0 302.9289 191.5358" fill="#FFFFFF" style="stroke: #383838; stroke-width: 1.5;"/><ellipse cx="310" cy="198.6069" fill="#FFFFFF" rx="6" ry="6" style="stroke: #383838; stroke-width: 1.5;"/><path d="M268.35,298.9531 C249.33,298.9531 230.31,298.9531 211.28,298.9531 " fill="none" id="PDB-PDBI" style="stroke: #383838; stroke-width: 1.0;"/><path d="M523.75,101.9231 C624.22,108.4531 829.93,127.5031 880,175.9531 C912.27,207.1731 910.01,267.6731 907.96,289.6831 " fill="none" id="BDB-BDBI" style="stroke: #383838; stroke-width: 1.0;"/><path d="M377.19,112.3831 C483.61,133.7231 679.27,173.2531 682,175.9531 C713.97,207.4831 711.89,267.7931 709.92,289.7231 " fill="none" id="TDB-TDBI" style="stroke: #383838; stroke-width: 1.0;"/><path d="M709,518.1331 C709,552.4131 709,628.2031 709,653.2431 " fill="none" id="OH-OHI" style="stroke: #383838; stroke-width: 1.0;"/><path d="M603,680.6331 C603,714.9131 603,790.7031 603,815.7431 " fill="none" id="ES-ESI" style="stroke: #383838; stroke-width: 1.0;"/><path d="M199.9,318.2131 C197.94,345.0431 198.71,394.8731 227,421.9531 C284.47,476.9631 516.9,492.7031 636.74,497.1831 " fill="none" id="PDBI&lt;-OH" style="stroke: #383838; stroke-width: 1.0;"/><path d="M192.1302,310.5203 A9,9 0 0 0 208.9694 312.1149" fill="none" style="stroke: #383838; stroke-width: 1.5;"/><path d="M907.79,318.4031 C907.92,344.3731 904.45,391.8831 880,421.9531 C855.25,452.3931 815.91,471.2331 781.2,482.6531 " fill="none" id="BDBI&lt;-OH" style="stroke: #383838; stroke-width: 1.0;"/><path d="M899.1601,311.416 A9,9 0 0 0 916.0696 311.0048" fill="none" style="stroke: #383838; stroke-width: 1.5;"/><path d="M709,318.1531 C709,356.4031 709,444.6531 709,481.8931 " fill="none" id="TDBI&lt;-OH" style="stroke: #383838; stroke-width: 1.0;"/><path d="M700.5428,311.0813 A9,9 0 0 0 717.4572 311.0813" fill="none" style="stroke: #383838; stroke-width: 1.5;"/><path d="M664.7,662.4531 C672.98,662.4531 681.26,662.4531 689.55,662.4531 " fill="none" id="ES-&gt;OHI" style="stroke: #383838; stroke-width: 1.0;"/><path d="M696.5718,653.9959 A9,9 0 0 0 696.5718 670.9104" fill="none" style="stroke: #383838; stroke-width: 1.5;"/><path d="M622.29,824.9531 C630.4,824.9531 638.5,824.9531 646.61,824.9531 " fill="none" id="ESI&lt;-DWI" style="stroke: #383838; stroke-width: 1.0;"/><path d="M615.0982,833.4104 A9,9 0 0 0 615.0982 816.4959" fill="none" style="stroke: #383838; stroke-width: 1.5;"/><path d="M559.05,824.9531 C567.27,824.9531 575.49,824.9531 583.71,824.9531 " fill="none" id="MWI-&gt;ESI" style="stroke: #383838; stroke-width: 1.0;"/><path d="M590.6518,816.4959 A9,9 0 0 0 590.6518 833.4104" fill="none" style="stroke: #383838; stroke-width: 1.5;"/><path d="M372.48,824.9531 C380.53,824.9531 388.58,824.9531 396.63,824.9531 " fill="none" id="QRI&lt;-MWI" style="stroke: #383838; stroke-width: 1.0;"/><path d="M365.3582,833.4104 A9,9 0 0 0 365.3582 816.4959" fill="none" style="stroke: #383838; stroke-width: 1.5;"/></g></svg>