<?xml version="1.0" encoding="UTF-8" standalone="no"?><svg xmlns="http://www.w3.org/2000/svg" xmlns:xlink="http://www.w3.org/1999/xlink" contentScriptType="application/ecmascript" contentStyleType="text/css" height="122px" preserveAspectRatio="none" style="width:585px;height:122px;" version="1.1" viewBox="0 0 585 122" width="585px" zoomAndPan="magnify"><defs/><g><rect fill="#FFFFFF" height="87" style="stroke: #000000; stroke-width: 1.5;" width="552" x="22" y="24"/><text fill="#000000" font-family="sans-serif" font-size="14" font-weight="bold" lengthAdjust="spacingAndGlyphs" textLength="383" x="106.5" y="38.9951">After a user update the information of a product</text><rect fill="#F8F8F8" height="36.2969" style="stroke: #000000; stroke-width: 1.5;" width="52" x="38" y="59"/><text fill="#000000" font-family="sans-serif" font-size="14" lengthAdjust="spacingAndGlyphs" textLength="32" x="48" y="81.9951">User</text><rect fill="#F8F8F8" height="36.2969" style="stroke: #000000; stroke-width: 1.5;" width="69" x="488.5" y="59"/><text fill="#000000" font-family="sans-serif" font-size="14" lengthAdjust="spacingAndGlyphs" textLength="49" x="498.5" y="81.9951">max 2s</text><rect fill="#F8F8F8" height="36.2969" style="stroke: #383838; stroke-width: 1.5;" width="71" x="250.5" y="59"/><rect fill="#F8F8F8" height="5" style="stroke: #383838; stroke-width: 1.5;" width="10" x="245.5" y="64"/><rect fill="#F8F8F8" height="5" style="stroke: #383838; stroke-width: 1.5;" width="10" x="245.5" y="85.2969"/><text fill="#000000" font-family="sans-serif" font-size="14" lengthAdjust="spacingAndGlyphs" textLength="51" x="260.5" y="81.9951">System</text><path d="M90.34,77 C128.6,77 199.92,77 245.07,77 " fill="none" id="Source-&gt;System" style="stroke: #383838; stroke-width: 1.0;"/><polygon fill="#383838" points="250.17,77,241.17,73,245.17,77,241.17,81,250.17,77" style="stroke: #383838; stroke-width: 1.0;"/><text fill="#000000" font-family="sans-serif" font-size="13" lengthAdjust="spacingAndGlyphs" textLength="124" x="108.25" y="70.0669">Update information</text><path d="M321.74,77 C365.07,77 437.89,77 483.04,77 " fill="none" id="System-&gt;Measure" style="stroke: #383838; stroke-width: 1.0;"/><polygon fill="#383838" points="488.13,77,479.13,73,483.13,77,479.13,81,488.13,77" style="stroke: #383838; stroke-width: 1.0;"/><text fill="#000000" font-family="sans-serif" font-size="13" lengthAdjust="spacingAndGlyphs" textLength="130" x="340" y="70.0669">Information updated</text></g></svg>