<?xml version="1.0" encoding="UTF-8" standalone="no"?><svg xmlns="http://www.w3.org/2000/svg" xmlns:xlink="http://www.w3.org/1999/xlink" contentScriptType="application/ecmascript" contentStyleType="text/css" height="306px" preserveAspectRatio="none" style="width:970px;height:306px;" version="1.1" viewBox="0 0 970 306" width="970px" zoomAndPan="magnify"><defs/><g><rect fill="#FFFFFF" height="81.2188" style="stroke: #444444; stroke-width: 1.0; stroke-dasharray: 7.0,7.0;" width="206" x="305.5" y="8"/><text fill="#000000" font-family="sans-serif" font-size="0" font-style="italic" lengthAdjust="spacingAndGlyphs" textLength="0" x="408.5" y="18">«boundary»</text><text fill="#444444" font-family="sans-serif" font-size="16" font-weight="bold" lengthAdjust="spacingAndGlyphs" textLength="101" x="355" y="42.8516">Warehouse</text><text fill="#444444" font-family="sans-serif" font-size="16" font-weight="bold" lengthAdjust="spacingAndGlyphs" textLength="186" x="315.5" y="61.4766">management system</text><text fill="#444444" font-family="sans-serif" font-size="12" lengthAdjust="spacingAndGlyphs" textLength="55" x="381" y="76.3887">[System]</text><rect fill="#08427B" height="101.4844" style="stroke: #073B6F; stroke-width: 1.5;" width="213" x="6" y="194"/><text fill="#FFFFFF" font-family="sans-serif" font-size="12" font-style="italic" lengthAdjust="spacingAndGlyphs" textLength="57" x="84" y="215.1387">«person»</text><text fill="#FFFFFF" font-family="sans-serif" font-size="16" font-weight="bold" lengthAdjust="spacingAndGlyphs" textLength="41" x="92" y="232.8203">User</text><text fill="#FFFFFF" font-family="sans-serif" font-size="14" lengthAdjust="spacingAndGlyphs" textLength="0" x="114.5" y="249.5889"/><text fill="#FFFFFF" font-family="sans-serif" font-size="14" lengthAdjust="spacingAndGlyphs" textLength="189" x="16" y="265.8857">Check products amount on</text><text fill="#FFFFFF" font-family="sans-serif" font-size="14" lengthAdjust="spacingAndGlyphs" textLength="53" x="86" y="282.1826">shelves</text><rect fill="#08427B" height="101.4844" style="stroke: #073B6F; stroke-width: 1.5;" width="165" x="296" y="194"/><text fill="#FFFFFF" font-family="sans-serif" font-size="12" font-style="italic" lengthAdjust="spacingAndGlyphs" textLength="57" x="350" y="215.1387">«person»</text><text fill="#FFFFFF" font-family="sans-serif" font-size="16" font-weight="bold" lengthAdjust="spacingAndGlyphs" textLength="41" x="358" y="232.8203">User</text><text fill="#FFFFFF" font-family="sans-serif" font-size="14" lengthAdjust="spacingAndGlyphs" textLength="0" x="380.5" y="249.5889"/><text fill="#FFFFFF" font-family="sans-serif" font-size="14" lengthAdjust="spacingAndGlyphs" textLength="141" x="306" y="265.8857">Want to see product</text><text fill="#FFFFFF" font-family="sans-serif" font-size="14" lengthAdjust="spacingAndGlyphs" textLength="77" x="340" y="282.1826">information</text><rect fill="#999999" height="52.5938" style="stroke: #8A8A8A; stroke-width: 1.5;" width="188" x="546.5" y="218"/><text fill="#FFFFFF" font-family="sans-serif" font-size="12" font-style="italic" lengthAdjust="spacingAndGlyphs" textLength="115" x="583" y="239.1387">«external_system»</text><text fill="#FFFFFF" font-family="sans-serif" font-size="16" font-weight="bold" lengthAdjust="spacingAndGlyphs" textLength="168" x="556.5" y="256.8203">Products database</text><rect fill="#999999" height="52.5938" style="stroke: #8A8A8A; stroke-width: 1.5;" width="190" x="769.5" y="218"/><text fill="#FFFFFF" font-family="sans-serif" font-size="12" font-style="italic" lengthAdjust="spacingAndGlyphs" textLength="115" x="807" y="239.1387">«external_system»</text><text fill="#FFFFFF" font-family="sans-serif" font-size="16" font-weight="bold" lengthAdjust="spacingAndGlyphs" textLength="170" x="779.5" y="256.8203">Barcodes database</text><path d="M137.13,193.93 C152.06,168.37 173.29,138.55 199.5,119 C229,96.99 265.87,81.7 300.39,71.2 " fill="none" id="user_1-&gt;boundary" style="stroke: #666666; stroke-width: 1.0;"/><polygon fill="#666666" points="305.47,69.68,295.7019,68.4214,300.6789,71.1102,297.9902,76.0872,305.47,69.68" style="stroke: #666666; stroke-width: 1.0;"/><text fill="#666666" font-family="sans-serif" font-size="13" font-weight="bold" lengthAdjust="spacingAndGlyphs" textLength="108" x="200.5" y="146.0669">Insert barcode</text><path d="M305.17,54.06 C205.52,60.88 64.88,77.73 30.5,119 C12.18,141 25,167.22 45.46,189.92 " fill="none" id="boundary-&gt;user_1" style="stroke: #666666; stroke-width: 1.0;"/><polygon fill="#666666" points="49.09,193.82,45.9096,184.4988,45.6927,190.1515,40.04,189.9345,49.09,193.82" style="stroke: #666666; stroke-width: 1.0;"/><text fill="#666666" font-family="sans-serif" font-size="13" font-weight="bold" lengthAdjust="spacingAndGlyphs" textLength="112" x="31.5" y="138.5669">Return product</text><text fill="#666666" font-family="sans-serif" font-size="13" font-weight="bold" lengthAdjust="spacingAndGlyphs" textLength="56" x="62" y="153.6997">amount</text><path d="M432.32,193.75 C439.34,184.58 445.48,174.55 449.5,164 C458.32,140.89 450.48,114.95 439.38,93.61 " fill="none" id="user_2-&gt;boundary" style="stroke: #666666; stroke-width: 1.0;"/><polygon fill="#666666" points="436.96,89.13,437.6955,98.9514,439.3262,93.5346,444.743,95.1654,436.96,89.13" style="stroke: #666666; stroke-width: 1.0;"/><text fill="#666666" font-family="sans-serif" font-size="13" font-weight="bold" lengthAdjust="spacingAndGlyphs" textLength="105" x="454.5" y="138.5669">Insert product</text><text fill="#666666" font-family="sans-serif" font-size="13" font-weight="bold" lengthAdjust="spacingAndGlyphs" textLength="41" x="489" y="153.6997">name</text><path d="M345.3,89.03 C336.07,97.72 327.88,107.74 322.5,119 C311.54,141.96 319.61,167.55 332.69,189.54 " fill="none" id="boundary-&gt;user_2" style="stroke: #666666; stroke-width: 1.0;"/><polygon fill="#666666" points="335.37,193.88,334.0689,184.1175,332.7535,189.6193,327.2517,188.3039,335.37,193.88" style="stroke: #666666; stroke-width: 1.0;"/><text fill="#666666" font-family="sans-serif" font-size="13" font-weight="bold" lengthAdjust="spacingAndGlyphs" textLength="112" x="323.5" y="138.5669">Return product</text><text fill="#666666" font-family="sans-serif" font-size="13" font-weight="bold" lengthAdjust="spacingAndGlyphs" textLength="85" x="339.5" y="153.6997">information</text><path d="M511.55,53.59 C582.92,60.3 677.94,77.19 751.5,119 C792.01,142.03 825.94,184.75 845.75,213.65 " fill="none" id="boundary-&gt;Bdb" style="stroke: #666666; stroke-width: 1.0;"/><polygon fill="#666666" points="848.56,217.81,846.8344,208.1135,845.7602,213.6674,840.2063,212.5932,848.56,217.81" style="stroke: #666666; stroke-width: 1.0;"/><text fill="#666666" font-family="sans-serif" font-size="13" font-weight="bold" lengthAdjust="spacingAndGlyphs" textLength="102" x="821.5" y="132.0669">Import/Export</text><text fill="#666666" font-family="sans-serif" font-size="12" font-style="italic" lengthAdjust="spacingAndGlyphs" textLength="130" x="805.5" y="146.2715">[Product id based on</text><text fill="#666666" font-family="sans-serif" font-size="12" font-style="italic" lengthAdjust="spacingAndGlyphs" textLength="57" x="844" y="160.2402">barcode]</text><path d="M511.72,80.3 C533.81,90.2 555.79,102.9 573.5,119 C601.71,144.65 620.35,185.01 630.65,212.78 " fill="none" id="boundary-&gt;Pdb" style="stroke: #666666; stroke-width: 1.0;"/><polygon fill="#666666" points="632.48,217.82,633.1803,207.9961,630.7793,213.1181,625.6573,210.7172,632.48,217.82" style="stroke: #666666; stroke-width: 1.0;"/><text fill="#666666" font-family="sans-serif" font-size="13" font-weight="bold" lengthAdjust="spacingAndGlyphs" textLength="102" x="624.5" y="132.0669">Import/Export</text><text fill="#666666" font-family="sans-serif" font-size="12" font-style="italic" lengthAdjust="spacingAndGlyphs" textLength="128" x="609.5" y="146.2715">[Product information</text><text fill="#666666" font-family="sans-serif" font-size="12" font-style="italic" lengthAdjust="spacingAndGlyphs" textLength="134" x="608.5" y="160.2402">based on id or name]</text></g></svg>