<?xml version="1.0" encoding="UTF-8" standalone="no"?><svg xmlns="http://www.w3.org/2000/svg" xmlns:xlink="http://www.w3.org/1999/xlink" contentScriptType="application/ecmascript" contentStyleType="text/css" height="558px" preserveAspectRatio="none" style="width:1905px;height:558px;" version="1.1" viewBox="0 0 1905 558" width="1905px" zoomAndPan="magnify"><defs/><g><text fill="#000000" font-family="Courier" font-size="14" font-weight="bold" lengthAdjust="spacingAndGlyphs" textLength="96" x="903" y="22.9951">Process View</text><line style="stroke: #383838; stroke-width: 1.0; stroke-dasharray: 5.0,5.0;" x1="107" x2="107" y1="64.5938" y2="518.4531"/><line style="stroke: #383838; stroke-width: 1.0; stroke-dasharray: 5.0,5.0;" x1="303" x2="303" y1="64.5938" y2="518.4531"/><line style="stroke: #383838; stroke-width: 1.0; stroke-dasharray: 5.0,5.0;" x1="491" x2="491" y1="64.5938" y2="518.4531"/><line style="stroke: #383838; stroke-width: 1.0; stroke-dasharray: 5.0,5.0;" x1="1003" x2="1003" y1="64.5938" y2="518.4531"/><line style="stroke: #383838; stroke-width: 1.0; stroke-dasharray: 5.0,5.0;" x1="1387" x2="1387" y1="64.5938" y2="518.4531"/><line style="stroke: #383838; stroke-width: 1.0; stroke-dasharray: 5.0,5.0;" x1="1543" x2="1543" y1="64.5938" y2="518.4531"/><line style="stroke: #383838; stroke-width: 1.0; stroke-dasharray: 5.0,5.0;" x1="1819" x2="1819" y1="64.5938" y2="518.4531"/><rect fill="#F8F8F8" height="30.2969" style="stroke: #383838; stroke-width: 1.5;" width="198" x="8" y="33.2969"/><text fill="#000000" font-family="Courier" font-size="14" lengthAdjust="spacingAndGlyphs" textLength="184" x="15" y="53.292">html5-qrcode &lt;external&gt;</text><rect fill="#F8F8F8" height="30.2969" style="stroke: #383838; stroke-width: 1.5;" width="198" x="8" y="517.4531"/><text fill="#000000" font-family="Courier" font-size="14" lengthAdjust="spacingAndGlyphs" textLength="184" x="15" y="537.4482">html5-qrcode &lt;external&gt;</text><rect fill="#F8F8F8" height="30.2969" style="stroke: #383838; stroke-width: 1.5;" width="174" x="216" y="33.2969"/><text fill="#000000" font-family="Courier" font-size="14" lengthAdjust="spacingAndGlyphs" textLength="160" x="223" y="53.292">Mobile Web interface</text><rect fill="#F8F8F8" height="30.2969" style="stroke: #383838; stroke-width: 1.5;" width="174" x="216" y="517.4531"/><text fill="#000000" font-family="Courier" font-size="14" lengthAdjust="spacingAndGlyphs" textLength="160" x="223" y="537.4482">Mobile Web interface</text><rect fill="#F8F8F8" height="30.2969" style="stroke: #383838; stroke-width: 1.5;" width="182" x="400" y="33.2969"/><text fill="#000000" font-family="Courier" font-size="14" lengthAdjust="spacingAndGlyphs" textLength="168" x="407" y="53.292">Desktop Web interface</text><rect fill="#F8F8F8" height="30.2969" style="stroke: #383838; stroke-width: 1.5;" width="182" x="400" y="517.4531"/><text fill="#000000" font-family="Courier" font-size="14" lengthAdjust="spacingAndGlyphs" textLength="168" x="407" y="537.4482">Desktop Web interface</text><rect fill="#F8F8F8" height="30.2969" style="stroke: #383838; stroke-width: 1.5;" width="126" x="940" y="33.2969"/><text fill="#000000" font-family="Courier" font-size="14" lengthAdjust="spacingAndGlyphs" textLength="112" x="947" y="53.292">Express server</text><rect fill="#F8F8F8" height="30.2969" style="stroke: #383838; stroke-width: 1.5;" width="126" x="940" y="517.4531"/><text fill="#000000" font-family="Courier" font-size="14" lengthAdjust="spacingAndGlyphs" textLength="112" x="947" y="537.4482">Express server</text><rect fill="#F8F8F8" height="30.2969" style="stroke: #383838; stroke-width: 1.5;" width="150" x="1312" y="33.2969"/><text fill="#000000" font-family="Courier" font-size="14" lengthAdjust="spacingAndGlyphs" textLength="136" x="1319" y="53.292">Operation handler</text><rect fill="#F8F8F8" height="30.2969" style="stroke: #383838; stroke-width: 1.5;" width="150" x="1312" y="517.4531"/><text fill="#000000" font-family="Courier" font-size="14" lengthAdjust="spacingAndGlyphs" textLength="136" x="1319" y="537.4482">Operation handler</text><rect fill="#F8F8F8" height="30.2969" style="stroke: #383838; stroke-width: 1.5;" width="142" x="1472" y="33.2969"/><text fill="#000000" font-family="Courier" font-size="14" lengthAdjust="spacingAndGlyphs" textLength="128" x="1479" y="53.292">Barcode database</text><rect fill="#F8F8F8" height="30.2969" style="stroke: #383838; stroke-width: 1.5;" width="142" x="1472" y="517.4531"/><text fill="#000000" font-family="Courier" font-size="14" lengthAdjust="spacingAndGlyphs" textLength="128" x="1479" y="537.4482">Barcode database</text><rect fill="#F8F8F8" height="30.2969" style="stroke: #383838; stroke-width: 1.5;" width="150" x="1744" y="33.2969"/><text fill="#000000" font-family="Courier" font-size="14" lengthAdjust="spacingAndGlyphs" textLength="128" x="1751" y="53.292">Product database</text><rect fill="#F8F8F8" height="30.2969" style="stroke: #383838; stroke-width: 1.5;" width="150" x="1744" y="517.4531"/><text fill="#000000" font-family="Courier" font-size="14" lengthAdjust="spacingAndGlyphs" textLength="128" x="1751" y="537.4482">Product database</text><line style="stroke: #383838; stroke-width: 1.0;" x1="491" x2="533" y1="95.7266" y2="95.7266"/><line style="stroke: #383838; stroke-width: 1.0;" x1="533" x2="533" y1="95.7266" y2="108.7266"/><line style="stroke: #383838; stroke-width: 1.0;" x1="492" x2="533" y1="108.7266" y2="108.7266"/><polygon fill="#383838" points="502,104.7266,492,108.7266,502,112.7266,498,108.7266" style="stroke: #383838; stroke-width: 1.0;"/><text fill="#000000" font-family="Courier" font-size="13" lengthAdjust="spacingAndGlyphs" textLength="168" x="498" y="90.6606">Read the product name</text><polygon fill="#383838" points="991,133.8594,1001,137.8594,991,141.8594,995,137.8594" style="stroke: #383838; stroke-width: 1.0;"/><line style="stroke: #383838; stroke-width: 1.0;" x1="491" x2="997" y1="137.8594" y2="137.8594"/><text fill="#000000" font-family="Courier" font-size="13" lengthAdjust="spacingAndGlyphs" textLength="272" x="498" y="132.7935">POST request with the product name</text><polygon fill="#383838" points="1375,162.9922,1385,166.9922,1375,170.9922,1379,166.9922" style="stroke: #383838; stroke-width: 1.0;"/><line style="stroke: #383838; stroke-width: 1.0;" x1="1003" x2="1381" y1="166.9922" y2="166.9922"/><text fill="#000000" font-family="Courier" font-size="13" lengthAdjust="spacingAndGlyphs" textLength="136" x="1010" y="161.9263">Send product name</text><polygon fill="#383838" points="1807,192.125,1817,196.125,1807,200.125,1811,196.125" style="stroke: #383838; stroke-width: 1.0;"/><line style="stroke: #383838; stroke-width: 1.0;" x1="1387" x2="1813" y1="196.125" y2="196.125"/><text fill="#000000" font-family="Courier" font-size="13" lengthAdjust="spacingAndGlyphs" textLength="408" x="1394" y="191.0591">Query for product information based on product name</text><polygon fill="#383838" points="1398,221.2578,1388,225.2578,1398,229.2578,1394,225.2578" style="stroke: #383838; stroke-width: 1.0;"/><line style="stroke: #383838; stroke-width: 1.0;" x1="1392" x2="1818" y1="225.2578" y2="225.2578"/><text fill="#000000" font-family="Courier" font-size="13" lengthAdjust="spacingAndGlyphs" textLength="328" x="1404" y="220.1919">Return the product information if founded</text><polygon fill="#383838" points="1014,250.3906,1004,254.3906,1014,258.3906,1010,254.3906" style="stroke: #383838; stroke-width: 1.0;"/><line style="stroke: #383838; stroke-width: 1.0;" x1="1008" x2="1386" y1="254.3906" y2="254.3906"/><text fill="#000000" font-family="Courier" font-size="13" lengthAdjust="spacingAndGlyphs" textLength="240" x="1020" y="249.3247">Return the product information</text><polygon fill="#383838" points="502,279.5234,492,283.5234,502,287.5234,498,283.5234" style="stroke: #383838; stroke-width: 1.0;"/><line style="stroke: #383838; stroke-width: 1.0;" x1="496" x2="1002" y1="283.5234" y2="283.5234"/><text fill="#000000" font-family="Courier" font-size="13" lengthAdjust="spacingAndGlyphs" textLength="240" x="508" y="278.4575">Return the product information</text><line style="stroke: #383838; stroke-width: 1.0;" x1="491" x2="533" y1="312.6563" y2="312.6563"/><line style="stroke: #383838; stroke-width: 1.0;" x1="533" x2="533" y1="312.6563" y2="325.6563"/><line style="stroke: #383838; stroke-width: 1.0;" x1="492" x2="533" y1="325.6563" y2="325.6563"/><polygon fill="#383838" points="502,321.6563,492,325.6563,502,329.6563,498,325.6563" style="stroke: #383838; stroke-width: 1.0;"/><text fill="#000000" font-family="Courier" font-size="13" lengthAdjust="spacingAndGlyphs" textLength="336" x="498" y="307.5903">Display and update the product information</text><polygon fill="#383838" points="991,350.7891,1001,354.7891,991,358.7891,995,354.7891" style="stroke: #383838; stroke-width: 1.0;"/><line style="stroke: #383838; stroke-width: 1.0;" x1="491" x2="997" y1="354.7891" y2="354.7891"/><text fill="#000000" font-family="Courier" font-size="13" lengthAdjust="spacingAndGlyphs" textLength="488" x="498" y="349.7231">POST request with the product name and the update information</text><polygon fill="#383838" points="1375,379.9219,1385,383.9219,1375,387.9219,1379,383.9219" style="stroke: #383838; stroke-width: 1.0;"/><line style="stroke: #383838; stroke-width: 1.0;" x1="1003" x2="1381" y1="383.9219" y2="383.9219"/><text fill="#000000" font-family="Courier" font-size="13" lengthAdjust="spacingAndGlyphs" textLength="352" x="1010" y="378.856">Send product name and the update information</text><polygon fill="#383838" points="1807,409.0547,1817,413.0547,1807,417.0547,1811,413.0547" style="stroke: #383838; stroke-width: 1.0;"/><line style="stroke: #383838; stroke-width: 1.0;" x1="1387" x2="1813" y1="413.0547" y2="413.0547"/><text fill="#000000" font-family="Courier" font-size="13" lengthAdjust="spacingAndGlyphs" textLength="264" x="1394" y="407.9888">Update information of the product</text><polygon fill="#383838" points="1398,438.1875,1388,442.1875,1398,446.1875,1394,442.1875" style="stroke: #383838; stroke-width: 1.0;"/><line style="stroke: #383838; stroke-width: 1.0;" x1="1392" x2="1818" y1="442.1875" y2="442.1875"/><text fill="#000000" font-family="Courier" font-size="13" lengthAdjust="spacingAndGlyphs" textLength="272" x="1404" y="437.1216">Return the result of the operation</text><polygon fill="#383838" points="1014,467.3203,1004,471.3203,1014,475.3203,1010,471.3203" style="stroke: #383838; stroke-width: 1.0;"/><line style="stroke: #383838; stroke-width: 1.0;" x1="1008" x2="1386" y1="471.3203" y2="471.3203"/><text fill="#000000" font-family="Courier" font-size="13" lengthAdjust="spacingAndGlyphs" textLength="360" x="1020" y="466.2544">Return the updated information of the product</text><polygon fill="#383838" points="502,496.4531,492,500.4531,502,504.4531,498,500.4531" style="stroke: #383838; stroke-width: 1.0;"/><line style="stroke: #383838; stroke-width: 1.0;" x1="496" x2="1002" y1="500.4531" y2="500.4531"/><text fill="#000000" font-family="Courier" font-size="13" lengthAdjust="spacingAndGlyphs" textLength="360" x="508" y="495.3872">Return the updated information of the product</text></g></svg>