<?xml version="1.0" encoding="UTF-8" standalone="no"?><svg xmlns="http://www.w3.org/2000/svg" xmlns:xlink="http://www.w3.org/1999/xlink" contentScriptType="application/ecmascript" contentStyleType="text/css" height="445px" preserveAspectRatio="none" style="width:2029px;height:445px;" version="1.1" viewBox="0 0 2029 445" width="2029px" zoomAndPan="magnify"><defs/><g><text fill="#000000" font-family="Courier" font-size="14" font-weight="bold" lengthAdjust="spacingAndGlyphs" textLength="96" x="965" y="22.9951">Process View</text><line style="stroke: #383838; stroke-width: 1.0; stroke-dasharray: 5.0,5.0;" x1="99" x2="99" y1="64.5938" y2="405.0547"/><line style="stroke: #383838; stroke-width: 1.0; stroke-dasharray: 5.0,5.0;" x1="299" x2="299" y1="64.5938" y2="405.0547"/><line style="stroke: #383838; stroke-width: 1.0; stroke-dasharray: 5.0,5.0;" x1="507" x2="507" y1="64.5938" y2="405.0547"/><line style="stroke: #383838; stroke-width: 1.0; stroke-dasharray: 5.0,5.0;" x1="995" x2="995" y1="64.5938" y2="405.0547"/><line style="stroke: #383838; stroke-width: 1.0; stroke-dasharray: 5.0,5.0;" x1="1467" x2="1467" y1="64.5938" y2="405.0547"/><line style="stroke: #383838; stroke-width: 1.0; stroke-dasharray: 5.0,5.0;" x1="1787" x2="1787" y1="64.5938" y2="405.0547"/><line style="stroke: #383838; stroke-width: 1.0; stroke-dasharray: 5.0,5.0;" x1="1943" x2="1943" y1="64.5938" y2="405.0547"/><rect fill="#F8F8F8" height="30.2969" style="stroke: #383838; stroke-width: 1.5;" width="182" x="8" y="33.2969"/><text fill="#000000" font-family="Courier" font-size="14" lengthAdjust="spacingAndGlyphs" textLength="168" x="15" y="53.292">Desktop Web interface</text><rect fill="#F8F8F8" height="30.2969" style="stroke: #383838; stroke-width: 1.5;" width="182" x="8" y="404.0547"/><text fill="#000000" font-family="Courier" font-size="14" lengthAdjust="spacingAndGlyphs" textLength="168" x="15" y="424.0498">Desktop Web interface</text><rect fill="#F8F8F8" height="30.2969" style="stroke: #383838; stroke-width: 1.5;" width="198" x="200" y="33.2969"/><text fill="#000000" font-family="Courier" font-size="14" lengthAdjust="spacingAndGlyphs" textLength="184" x="207" y="53.292">html5-qrcode &lt;external&gt;</text><rect fill="#F8F8F8" height="30.2969" style="stroke: #383838; stroke-width: 1.5;" width="198" x="200" y="404.0547"/><text fill="#000000" font-family="Courier" font-size="14" lengthAdjust="spacingAndGlyphs" textLength="184" x="207" y="424.0498">html5-qrcode &lt;external&gt;</text><rect fill="#F8F8F8" height="30.2969" style="stroke: #383838; stroke-width: 1.5;" width="174" x="420" y="33.2969"/><text fill="#000000" font-family="Courier" font-size="14" lengthAdjust="spacingAndGlyphs" textLength="160" x="427" y="53.292">Mobile Web interface</text><rect fill="#F8F8F8" height="30.2969" style="stroke: #383838; stroke-width: 1.5;" width="174" x="420" y="404.0547"/><text fill="#000000" font-family="Courier" font-size="14" lengthAdjust="spacingAndGlyphs" textLength="160" x="427" y="424.0498">Mobile Web interface</text><rect fill="#F8F8F8" height="30.2969" style="stroke: #383838; stroke-width: 1.5;" width="126" x="932" y="33.2969"/><text fill="#000000" font-family="Courier" font-size="14" lengthAdjust="spacingAndGlyphs" textLength="112" x="939" y="53.292">Express server</text><rect fill="#F8F8F8" height="30.2969" style="stroke: #383838; stroke-width: 1.5;" width="126" x="932" y="404.0547"/><text fill="#000000" font-family="Courier" font-size="14" lengthAdjust="spacingAndGlyphs" textLength="112" x="939" y="424.0498">Express server</text><rect fill="#F8F8F8" height="30.2969" style="stroke: #383838; stroke-width: 1.5;" width="150" x="1392" y="33.2969"/><text fill="#000000" font-family="Courier" font-size="14" lengthAdjust="spacingAndGlyphs" textLength="136" x="1399" y="53.292">Operation handler</text><rect fill="#F8F8F8" height="30.2969" style="stroke: #383838; stroke-width: 1.5;" width="150" x="1392" y="404.0547"/><text fill="#000000" font-family="Courier" font-size="14" lengthAdjust="spacingAndGlyphs" textLength="136" x="1399" y="424.0498">Operation handler</text><rect fill="#F8F8F8" height="30.2969" style="stroke: #383838; stroke-width: 1.5;" width="142" x="1716" y="33.2969"/><text fill="#000000" font-family="Courier" font-size="14" lengthAdjust="spacingAndGlyphs" textLength="128" x="1723" y="53.292">Barcode database</text><rect fill="#F8F8F8" height="30.2969" style="stroke: #383838; stroke-width: 1.5;" width="142" x="1716" y="404.0547"/><text fill="#000000" font-family="Courier" font-size="14" lengthAdjust="spacingAndGlyphs" textLength="128" x="1723" y="424.0498">Barcode database</text><rect fill="#F8F8F8" height="30.2969" style="stroke: #383838; stroke-width: 1.5;" width="150" x="1868" y="33.2969"/><text fill="#000000" font-family="Courier" font-size="14" lengthAdjust="spacingAndGlyphs" textLength="128" x="1875" y="53.292">Product database</text><rect fill="#F8F8F8" height="30.2969" style="stroke: #383838; stroke-width: 1.5;" width="150" x="1868" y="404.0547"/><text fill="#000000" font-family="Courier" font-size="14" lengthAdjust="spacingAndGlyphs" textLength="128" x="1875" y="424.0498">Product database</text><polygon fill="#383838" points="495,91.7266,505,95.7266,495,99.7266,499,95.7266" style="stroke: #383838; stroke-width: 1.0;"/><line style="stroke: #383838; stroke-width: 1.0;" x1="299" x2="501" y1="95.7266" y2="95.7266"/><text fill="#000000" font-family="Courier" font-size="13" lengthAdjust="spacingAndGlyphs" textLength="184" x="306" y="90.6606">Find and covert barcode</text><polygon fill="#383838" points="983,120.8594,993,124.8594,983,128.8594,987,124.8594" style="stroke: #383838; stroke-width: 1.0;"/><line style="stroke: #383838; stroke-width: 1.0;" x1="507" x2="989" y1="124.8594" y2="124.8594"/><text fill="#000000" font-family="Courier" font-size="13" lengthAdjust="spacingAndGlyphs" textLength="464" x="514" y="119.7935">POST request with barcode and information of the operation</text><polygon fill="#383838" points="1455,149.9922,1465,153.9922,1455,157.9922,1459,153.9922" style="stroke: #383838; stroke-width: 1.0;"/><line style="stroke: #383838; stroke-width: 1.0;" x1="995" x2="1461" y1="153.9922" y2="153.9922"/><text fill="#000000" font-family="Courier" font-size="13" lengthAdjust="spacingAndGlyphs" textLength="320" x="1002" y="148.9263">Send barcode and option of the operation</text><polygon fill="#383838" points="1775,179.125,1785,183.125,1775,187.125,1779,183.125" style="stroke: #383838; stroke-width: 1.0;"/><line style="stroke: #383838; stroke-width: 1.0;" x1="1467" x2="1781" y1="183.125" y2="183.125"/><text fill="#000000" font-family="Courier" font-size="13" lengthAdjust="spacingAndGlyphs" textLength="296" x="1474" y="178.0591">Query for product ID based on barcode</text><polygon fill="#383838" points="1478,208.2578,1468,212.2578,1478,216.2578,1474,212.2578" style="stroke: #383838; stroke-width: 1.0;"/><line style="stroke: #383838; stroke-width: 1.0;" x1="1472" x2="1786" y1="212.2578" y2="212.2578"/><text fill="#000000" font-family="Courier" font-size="13" lengthAdjust="spacingAndGlyphs" textLength="256" x="1484" y="207.1919">Return the product ID if founded</text><polygon fill="#383838" points="1931,237.3906,1941,241.3906,1931,245.3906,1935,241.3906" style="stroke: #383838; stroke-width: 1.0;"/><line style="stroke: #383838; stroke-width: 1.0;" x1="1467" x2="1937" y1="241.3906" y2="241.3906"/><text fill="#000000" font-family="Courier" font-size="13" lengthAdjust="spacingAndGlyphs" textLength="392" x="1474" y="236.3247">Query for product information based on product ID</text><polygon fill="#383838" points="1478,266.5234,1468,270.5234,1478,274.5234,1474,270.5234" style="stroke: #383838; stroke-width: 1.0;"/><line style="stroke: #383838; stroke-width: 1.0;" x1="1472" x2="1942" y1="270.5234" y2="270.5234"/><text fill="#000000" font-family="Courier" font-size="13" lengthAdjust="spacingAndGlyphs" textLength="328" x="1484" y="265.4575">Return the product information if founded</text><polygon fill="#383838" points="1931,295.6563,1941,299.6563,1931,303.6563,1935,299.6563" style="stroke: #383838; stroke-width: 1.0;"/><line style="stroke: #383838; stroke-width: 1.0;" x1="1467" x2="1937" y1="299.6563" y2="299.6563"/><text fill="#000000" font-family="Courier" font-size="13" lengthAdjust="spacingAndGlyphs" textLength="240" x="1474" y="294.5903">Update quantity of the product</text><polygon fill="#383838" points="1478,324.7891,1468,328.7891,1478,332.7891,1474,328.7891" style="stroke: #383838; stroke-width: 1.0;"/><line style="stroke: #383838; stroke-width: 1.0;" x1="1472" x2="1942" y1="328.7891" y2="328.7891"/><text fill="#000000" font-family="Courier" font-size="13" lengthAdjust="spacingAndGlyphs" textLength="272" x="1484" y="323.7231">Return the result of the operation</text><polygon fill="#383838" points="1006,353.9219,996,357.9219,1006,361.9219,1002,357.9219" style="stroke: #383838; stroke-width: 1.0;"/><line style="stroke: #383838; stroke-width: 1.0;" x1="1000" x2="1466" y1="357.9219" y2="357.9219"/><text fill="#000000" font-family="Courier" font-size="13" lengthAdjust="spacingAndGlyphs" textLength="448" x="1012" y="352.856">Return the product information with the updated quantity</text><polygon fill="#383838" points="518,383.0547,508,387.0547,518,391.0547,514,387.0547" style="stroke: #383838; stroke-width: 1.0;"/><line style="stroke: #383838; stroke-width: 1.0;" x1="512" x2="994" y1="387.0547" y2="387.0547"/><text fill="#000000" font-family="Courier" font-size="13" lengthAdjust="spacingAndGlyphs" textLength="448" x="524" y="381.9888">Return the product information with the updated quantity</text></g></svg>