<?xml version="1.0" encoding="UTF-8" standalone="no"?><svg xmlns="http://www.w3.org/2000/svg" xmlns:xlink="http://www.w3.org/1999/xlink" contentScriptType="application/ecmascript" contentStyleType="text/css" height="411px" preserveAspectRatio="none" style="width:1720px;height:411px;" version="1.1" viewBox="0 0 1720 411" width="1720px" zoomAndPan="magnify"><defs/><g><text fill="#000000" font-family="Courier" font-size="14" font-weight="bold" lengthAdjust="spacingAndGlyphs" textLength="96" x="810.5" y="22.9951">Process View</text><rect fill="#FFFFFF" height="31.2969" style="stroke: #383838; stroke-width: 1.0;" width="10" x="1101" y="134.8594"/><rect fill="#FFFFFF" height="87.3984" style="stroke: #383838; stroke-width: 1.0;" width="10" x="1101" y="236.5859"/><line style="stroke: #383838; stroke-width: 1.0; stroke-dasharray: 5.0,5.0;" x1="99" x2="99" y1="64.5938" y2="371.1172"/><line style="stroke: #383838; stroke-width: 1.0; stroke-dasharray: 5.0,5.0;" x1="299" x2="299" y1="64.5938" y2="371.1172"/><line style="stroke: #383838; stroke-width: 1.0; stroke-dasharray: 5.0,5.0;" x1="495" x2="495" y1="64.5938" y2="371.1172"/><line style="stroke: #383838; stroke-width: 1.0; stroke-dasharray: 5.0,5.0;" x1="631" x2="631" y1="64.5938" y2="371.1172"/><line style="stroke: #383838; stroke-width: 1.0; stroke-dasharray: 5.0,5.0;" x1="767" x2="767" y1="64.5938" y2="371.1172"/><line style="stroke: #383838; stroke-width: 1.0; stroke-dasharray: 5.0,5.0;" x1="1106" x2="1106" y1="204.8047" y2="371.1172"/><line style="stroke: #383838; stroke-width: 1.0; stroke-dasharray: 5.0,5.0;" x1="1266" x2="1266" y1="64.5938" y2="371.1172"/><line style="stroke: #383838; stroke-width: 1.0; stroke-dasharray: 5.0,5.0;" x1="1430" x2="1430" y1="64.5938" y2="371.1172"/><line style="stroke: #383838; stroke-width: 1.0; stroke-dasharray: 5.0,5.0;" x1="1614" x2="1614" y1="64.5938" y2="371.1172"/><rect fill="#F8F8F8" height="30.2969" style="stroke: #383838; stroke-width: 1.5;" width="182" x="8" y="33.2969"/><text fill="#000000" font-family="Courier" font-size="14" lengthAdjust="spacingAndGlyphs" textLength="168" x="15" y="53.292">Desktop Web interface</text><rect fill="#F8F8F8" height="30.2969" style="stroke: #383838; stroke-width: 1.5;" width="182" x="8" y="370.1172"/><text fill="#000000" font-family="Courier" font-size="14" lengthAdjust="spacingAndGlyphs" textLength="168" x="15" y="390.1123">Desktop Web interface</text><rect fill="#F8F8F8" height="30.2969" style="stroke: #383838; stroke-width: 1.5;" width="198" x="200" y="33.2969"/><text fill="#000000" font-family="Courier" font-size="14" lengthAdjust="spacingAndGlyphs" textLength="184" x="207" y="53.292">html5-qrcode &lt;external&gt;</text><rect fill="#F8F8F8" height="30.2969" style="stroke: #383838; stroke-width: 1.5;" width="198" x="200" y="370.1172"/><text fill="#000000" font-family="Courier" font-size="14" lengthAdjust="spacingAndGlyphs" textLength="184" x="207" y="390.1123">html5-qrcode &lt;external&gt;</text><rect fill="#F8F8F8" height="30.2969" style="stroke: #383838; stroke-width: 1.5;" width="174" x="408" y="33.2969"/><text fill="#000000" font-family="Courier" font-size="14" lengthAdjust="spacingAndGlyphs" textLength="160" x="415" y="53.292">Mobile Web interface</text><rect fill="#F8F8F8" height="30.2969" style="stroke: #383838; stroke-width: 1.5;" width="174" x="408" y="370.1172"/><text fill="#000000" font-family="Courier" font-size="14" lengthAdjust="spacingAndGlyphs" textLength="160" x="415" y="390.1123">Mobile Web interface</text><rect fill="#F8F8F8" height="30.2969" style="stroke: #383838; stroke-width: 1.5;" width="78" x="592" y="33.2969"/><text fill="#000000" font-family="Courier" font-size="14" lengthAdjust="spacingAndGlyphs" textLength="64" x="599" y="53.292">Watchdog</text><rect fill="#F8F8F8" height="30.2969" style="stroke: #383838; stroke-width: 1.5;" width="78" x="592" y="370.1172"/><text fill="#000000" font-family="Courier" font-size="14" lengthAdjust="spacingAndGlyphs" textLength="64" x="599" y="390.1123">Watchdog</text><rect fill="#F8F8F8" height="30.2969" style="stroke: #383838; stroke-width: 1.5;" width="126" x="704" y="33.2969"/><text fill="#000000" font-family="Courier" font-size="14" lengthAdjust="spacingAndGlyphs" textLength="112" x="711" y="53.292">Express server</text><rect fill="#F8F8F8" height="30.2969" style="stroke: #383838; stroke-width: 1.5;" width="126" x="704" y="370.1172"/><text fill="#000000" font-family="Courier" font-size="14" lengthAdjust="spacingAndGlyphs" textLength="112" x="711" y="390.1123">Express server</text><rect fill="#F8F8F8" height="30.2969" style="stroke: #383838; stroke-width: 1.5;" width="150" x="1031" y="370.1172"/><text fill="#000000" font-family="Courier" font-size="14" lengthAdjust="spacingAndGlyphs" textLength="136" x="1038" y="390.1123">Operation handler</text><rect fill="#F8F8F8" height="30.2969" style="stroke: #383838; stroke-width: 1.5;" width="150" x="1191" y="33.2969"/><text fill="#000000" font-family="Courier" font-size="14" lengthAdjust="spacingAndGlyphs" textLength="136" x="1198" y="53.292">Barcodes database</text><rect fill="#F8F8F8" height="30.2969" style="stroke: #383838; stroke-width: 1.5;" width="150" x="1191" y="370.1172"/><text fill="#000000" font-family="Courier" font-size="14" lengthAdjust="spacingAndGlyphs" textLength="136" x="1198" y="390.1123">Barcodes database</text><rect fill="#F8F8F8" height="30.2969" style="stroke: #383838; stroke-width: 1.5;" width="158" x="1351" y="33.2969"/><text fill="#000000" font-family="Courier" font-size="14" lengthAdjust="spacingAndGlyphs" textLength="136" x="1358" y="53.292">Products database</text><rect fill="#F8F8F8" height="30.2969" style="stroke: #383838; stroke-width: 1.5;" width="158" x="1351" y="370.1172"/><text fill="#000000" font-family="Courier" font-size="14" lengthAdjust="spacingAndGlyphs" textLength="136" x="1358" y="390.1123">Products database</text><rect fill="#F8F8F8" height="30.2969" style="stroke: #383838; stroke-width: 1.5;" width="190" x="1519" y="33.2969"/><text fill="#000000" font-family="Courier" font-size="14" lengthAdjust="spacingAndGlyphs" textLength="168" x="1526" y="53.292">Transactions database</text><rect fill="#F8F8F8" height="30.2969" style="stroke: #383838; stroke-width: 1.5;" width="190" x="1519" y="370.1172"/><text fill="#000000" font-family="Courier" font-size="14" lengthAdjust="spacingAndGlyphs" textLength="168" x="1526" y="390.1123">Transactions database</text><rect fill="#FFFFFF" height="31.2969" style="stroke: #383838; stroke-width: 1.0;" width="10" x="1101" y="134.8594"/><rect fill="#FFFFFF" height="87.3984" style="stroke: #383838; stroke-width: 1.0;" width="10" x="1101" y="236.5859"/><polygon fill="#383838" points="755,91.7266,765,95.7266,755,99.7266,759,95.7266" style="stroke: #383838; stroke-width: 1.0;"/><line style="stroke: #383838; stroke-width: 1.0;" x1="631" x2="761" y1="95.7266" y2="95.7266"/><text fill="#000000" font-family="Courier" font-size="13" lengthAdjust="spacingAndGlyphs" textLength="96" x="638" y="90.6606">Test loading</text><polygon fill="#383838" points="1019,120.8594,1029,124.8594,1019,128.8594,1023,124.8594" style="stroke: #383838; stroke-width: 1.0;"/><line style="stroke: #383838; stroke-width: 1.0;" x1="767" x2="1025" y1="124.8594" y2="124.8594"/><text fill="#000000" font-family="Courier" font-size="13" lengthAdjust="spacingAndGlyphs" textLength="112" x="774" y="119.7935">Load operation</text><rect fill="#F8F8F8" height="30.2969" style="stroke: #383838; stroke-width: 1.5;" width="150" x="1031" y="103.7266"/><text fill="#000000" font-family="Courier" font-size="14" lengthAdjust="spacingAndGlyphs" textLength="136" x="1038" y="123.7217">Operation handler</text><polygon fill="#383838" points="778,162.1563,768,166.1563,778,170.1563,774,166.1563" style="stroke: #383838; stroke-width: 1.0;"/><line style="stroke: #383838; stroke-width: 1.0; stroke-dasharray: 2.0,2.0;" x1="772" x2="1105" y1="166.1563" y2="166.1563"/><text fill="#000000" font-family="Courier" font-size="13" lengthAdjust="spacingAndGlyphs" textLength="128" x="784" y="161.0903">operation failed</text><line style="stroke: #383838; stroke-width: 2.0;" x1="1097" x2="1115" y1="157.1563" y2="175.1563"/><line style="stroke: #383838; stroke-width: 2.0;" x1="1097" x2="1115" y1="175.1563" y2="157.1563"/><polygon fill="#383838" points="1019,191.2891,1029,195.2891,1019,199.2891,1023,195.2891" style="stroke: #383838; stroke-width: 1.0;"/><line style="stroke: #383838; stroke-width: 1.0;" x1="767" x2="1025" y1="195.2891" y2="195.2891"/><text fill="#000000" font-family="Courier" font-size="13" lengthAdjust="spacingAndGlyphs" textLength="240" x="774" y="190.2231">create new "Operation handler"</text><rect fill="#F8F8F8" height="30.2969" style="stroke: #383838; stroke-width: 1.5;" width="150" x="1031" y="174.1563"/><text fill="#000000" font-family="Courier" font-size="14" lengthAdjust="spacingAndGlyphs" textLength="136" x="1038" y="194.1514">Operation handler</text><polygon fill="#383838" points="1089,232.5859,1099,236.5859,1089,240.5859,1093,236.5859" style="stroke: #383838; stroke-width: 1.0;"/><line style="stroke: #383838; stroke-width: 1.0;" x1="767" x2="1095" y1="236.5859" y2="236.5859"/><text fill="#000000" font-family="Courier" font-size="13" lengthAdjust="spacingAndGlyphs" textLength="168" x="774" y="231.52">Repeat load operation</text><polygon fill="#383838" points="1418,261.7188,1428,265.7188,1418,269.7188,1422,265.7188" style="stroke: #383838; stroke-width: 1.0;"/><line style="stroke: #383838; stroke-width: 1.0;" x1="1111" x2="1424" y1="265.7188" y2="265.7188"/><text fill="#000000" font-family="Courier" font-size="13" lengthAdjust="spacingAndGlyphs" textLength="96" x="1118" y="260.6528">do operation</text><polygon fill="#383838" points="1122,290.8516,1112,294.8516,1122,298.8516,1118,294.8516" style="stroke: #383838; stroke-width: 1.0;"/><line style="stroke: #383838; stroke-width: 1.0;" x1="1116" x2="1429" y1="294.8516" y2="294.8516"/><text fill="#000000" font-family="Courier" font-size="13" lengthAdjust="spacingAndGlyphs" textLength="112" x="1128" y="289.7856">operation done</text><polygon fill="#383838" points="778,319.9844,768,323.9844,778,327.9844,774,323.9844" style="stroke: #383838; stroke-width: 1.0;"/><line style="stroke: #383838; stroke-width: 1.0;" x1="772" x2="1105" y1="323.9844" y2="323.9844"/><text fill="#000000" font-family="Courier" font-size="13" lengthAdjust="spacingAndGlyphs" textLength="184" x="784" y="318.9185">return operation result</text><polygon fill="#383838" points="642,349.1172,632,353.1172,642,357.1172,638,353.1172" style="stroke: #383838; stroke-width: 1.0;"/><line style="stroke: #383838; stroke-width: 1.0;" x1="636" x2="766" y1="353.1172" y2="353.1172"/><text fill="#000000" font-family="Courier" font-size="13" lengthAdjust="spacingAndGlyphs" textLength="112" x="648" y="348.0513">operation done</text></g></svg>