<?xml version="1.0" encoding="UTF-8" standalone="no"?><svg xmlns="http://www.w3.org/2000/svg" xmlns:xlink="http://www.w3.org/1999/xlink" contentScriptType="application/ecmascript" contentStyleType="text/css" height="545px" preserveAspectRatio="none" style="width:2013px;height:545px;" version="1.1" viewBox="0 0 2013 545" width="2013px" zoomAndPan="magnify"><defs/><g><text fill="#000000" font-family="Courier" font-size="14" font-weight="bold" lengthAdjust="spacingAndGlyphs" textLength="96" x="957" y="22.9951">Process View</text><line style="stroke: #383838; stroke-width: 1.0; stroke-dasharray: 5.0,5.0;" x1="107" x2="107" y1="64.5938" y2="505.4531"/><line style="stroke: #383838; stroke-width: 1.0; stroke-dasharray: 5.0,5.0;" x1="303" x2="303" y1="64.5938" y2="505.4531"/><line style="stroke: #383838; stroke-width: 1.0; stroke-dasharray: 5.0,5.0;" x1="491" x2="491" y1="64.5938" y2="505.4531"/><line style="stroke: #383838; stroke-width: 1.0; stroke-dasharray: 5.0,5.0;" x1="979" x2="979" y1="64.5938" y2="505.4531"/><line style="stroke: #383838; stroke-width: 1.0; stroke-dasharray: 5.0,5.0;" x1="1451" x2="1451" y1="64.5938" y2="505.4531"/><line style="stroke: #383838; stroke-width: 1.0; stroke-dasharray: 5.0,5.0;" x1="1771" x2="1771" y1="64.5938" y2="505.4531"/><line style="stroke: #383838; stroke-width: 1.0; stroke-dasharray: 5.0,5.0;" x1="1927" x2="1927" y1="64.5938" y2="505.4531"/><rect fill="#F8F8F8" height="30.2969" style="stroke: #383838; stroke-width: 1.5;" width="198" x="8" y="33.2969"/><text fill="#000000" font-family="Courier" font-size="14" lengthAdjust="spacingAndGlyphs" textLength="184" x="15" y="53.292">html5-qrcode &lt;external&gt;</text><rect fill="#F8F8F8" height="30.2969" style="stroke: #383838; stroke-width: 1.5;" width="198" x="8" y="504.4531"/><text fill="#000000" font-family="Courier" font-size="14" lengthAdjust="spacingAndGlyphs" textLength="184" x="15" y="524.4482">html5-qrcode &lt;external&gt;</text><rect fill="#F8F8F8" height="30.2969" style="stroke: #383838; stroke-width: 1.5;" width="174" x="216" y="33.2969"/><text fill="#000000" font-family="Courier" font-size="14" lengthAdjust="spacingAndGlyphs" textLength="160" x="223" y="53.292">Mobile Web interface</text><rect fill="#F8F8F8" height="30.2969" style="stroke: #383838; stroke-width: 1.5;" width="174" x="216" y="504.4531"/><text fill="#000000" font-family="Courier" font-size="14" lengthAdjust="spacingAndGlyphs" textLength="160" x="223" y="524.4482">Mobile Web interface</text><rect fill="#F8F8F8" height="30.2969" style="stroke: #383838; stroke-width: 1.5;" width="182" x="400" y="33.2969"/><text fill="#000000" font-family="Courier" font-size="14" lengthAdjust="spacingAndGlyphs" textLength="168" x="407" y="53.292">Desktop Web interface</text><rect fill="#F8F8F8" height="30.2969" style="stroke: #383838; stroke-width: 1.5;" width="182" x="400" y="504.4531"/><text fill="#000000" font-family="Courier" font-size="14" lengthAdjust="spacingAndGlyphs" textLength="168" x="407" y="524.4482">Desktop Web interface</text><rect fill="#F8F8F8" height="30.2969" style="stroke: #383838; stroke-width: 1.5;" width="126" x="916" y="33.2969"/><text fill="#000000" font-family="Courier" font-size="14" lengthAdjust="spacingAndGlyphs" textLength="112" x="923" y="53.292">Express server</text><rect fill="#F8F8F8" height="30.2969" style="stroke: #383838; stroke-width: 1.5;" width="126" x="916" y="504.4531"/><text fill="#000000" font-family="Courier" font-size="14" lengthAdjust="spacingAndGlyphs" textLength="112" x="923" y="524.4482">Express server</text><rect fill="#F8F8F8" height="30.2969" style="stroke: #383838; stroke-width: 1.5;" width="150" x="1376" y="33.2969"/><text fill="#000000" font-family="Courier" font-size="14" lengthAdjust="spacingAndGlyphs" textLength="136" x="1383" y="53.292">Operation handler</text><rect fill="#F8F8F8" height="30.2969" style="stroke: #383838; stroke-width: 1.5;" width="150" x="1376" y="504.4531"/><text fill="#000000" font-family="Courier" font-size="14" lengthAdjust="spacingAndGlyphs" textLength="136" x="1383" y="524.4482">Operation handler</text><rect fill="#F8F8F8" height="30.2969" style="stroke: #383838; stroke-width: 1.5;" width="142" x="1700" y="33.2969"/><text fill="#000000" font-family="Courier" font-size="14" lengthAdjust="spacingAndGlyphs" textLength="128" x="1707" y="53.292">Barcode database</text><rect fill="#F8F8F8" height="30.2969" style="stroke: #383838; stroke-width: 1.5;" width="142" x="1700" y="504.4531"/><text fill="#000000" font-family="Courier" font-size="14" lengthAdjust="spacingAndGlyphs" textLength="128" x="1707" y="524.4482">Barcode database</text><rect fill="#F8F8F8" height="30.2969" style="stroke: #383838; stroke-width: 1.5;" width="150" x="1852" y="33.2969"/><text fill="#000000" font-family="Courier" font-size="14" lengthAdjust="spacingAndGlyphs" textLength="128" x="1859" y="53.292">Product database</text><rect fill="#F8F8F8" height="30.2969" style="stroke: #383838; stroke-width: 1.5;" width="150" x="1852" y="504.4531"/><text fill="#000000" font-family="Courier" font-size="14" lengthAdjust="spacingAndGlyphs" textLength="128" x="1859" y="524.4482">Product database</text><line style="stroke: #383838; stroke-width: 1.0;" x1="491" x2="533" y1="95.7266" y2="95.7266"/><line style="stroke: #383838; stroke-width: 1.0;" x1="533" x2="533" y1="95.7266" y2="108.7266"/><line style="stroke: #383838; stroke-width: 1.0;" x1="492" x2="533" y1="108.7266" y2="108.7266"/><polygon fill="#383838" points="502,104.7266,492,108.7266,502,112.7266,498,108.7266" style="stroke: #383838; stroke-width: 1.0;"/><text fill="#000000" font-family="Courier" font-size="13" lengthAdjust="spacingAndGlyphs" textLength="128" x="498" y="90.6606">Read the barcode</text><polygon fill="#383838" points="967,133.8594,977,137.8594,967,141.8594,971,137.8594" style="stroke: #383838; stroke-width: 1.0;"/><line style="stroke: #383838; stroke-width: 1.0;" x1="491" x2="973" y1="137.8594" y2="137.8594"/><text fill="#000000" font-family="Courier" font-size="13" lengthAdjust="spacingAndGlyphs" textLength="464" x="498" y="132.7935">POST request with barcode and information of the operation</text><polygon fill="#383838" points="1439,162.9922,1449,166.9922,1439,170.9922,1443,166.9922" style="stroke: #383838; stroke-width: 1.0;"/><line style="stroke: #383838; stroke-width: 1.0;" x1="979" x2="1445" y1="166.9922" y2="166.9922"/><text fill="#000000" font-family="Courier" font-size="13" lengthAdjust="spacingAndGlyphs" textLength="320" x="986" y="161.9263">Send barcode and option of the operation</text><polygon fill="#383838" points="1759,192.125,1769,196.125,1759,200.125,1763,196.125" style="stroke: #383838; stroke-width: 1.0;"/><line style="stroke: #383838; stroke-width: 1.0;" x1="1451" x2="1765" y1="196.125" y2="196.125"/><text fill="#000000" font-family="Courier" font-size="13" lengthAdjust="spacingAndGlyphs" textLength="296" x="1458" y="191.0591">Query for product ID based on barcode</text><polygon fill="#383838" points="1462,221.2578,1452,225.2578,1462,229.2578,1458,225.2578" style="stroke: #383838; stroke-width: 1.0;"/><line style="stroke: #383838; stroke-width: 1.0;" x1="1456" x2="1770" y1="225.2578" y2="225.2578"/><text fill="#000000" font-family="Courier" font-size="13" lengthAdjust="spacingAndGlyphs" textLength="256" x="1468" y="220.1919">Return the product ID if founded</text><polygon fill="#383838" points="1915,250.3906,1925,254.3906,1915,258.3906,1919,254.3906" style="stroke: #383838; stroke-width: 1.0;"/><line style="stroke: #383838; stroke-width: 1.0;" x1="1451" x2="1921" y1="254.3906" y2="254.3906"/><text fill="#000000" font-family="Courier" font-size="13" lengthAdjust="spacingAndGlyphs" textLength="392" x="1458" y="249.3247">Query for product information based on product ID</text><polygon fill="#383838" points="1462,279.5234,1452,283.5234,1462,287.5234,1458,283.5234" style="stroke: #383838; stroke-width: 1.0;"/><line style="stroke: #383838; stroke-width: 1.0;" x1="1456" x2="1926" y1="283.5234" y2="283.5234"/><text fill="#000000" font-family="Courier" font-size="13" lengthAdjust="spacingAndGlyphs" textLength="328" x="1468" y="278.4575">Return the product information if founded</text><polygon fill="#383838" points="1915,308.6563,1925,312.6563,1915,316.6563,1919,312.6563" style="stroke: #383838; stroke-width: 1.0;"/><line style="stroke: #383838; stroke-width: 1.0;" x1="1451" x2="1921" y1="312.6563" y2="312.6563"/><text fill="#000000" font-family="Courier" font-size="13" lengthAdjust="spacingAndGlyphs" textLength="240" x="1458" y="307.5903">Update quantity of the product</text><polygon fill="#383838" points="1462,337.7891,1452,341.7891,1462,345.7891,1458,341.7891" style="stroke: #383838; stroke-width: 1.0;"/><line style="stroke: #383838; stroke-width: 1.0;" x1="1456" x2="1926" y1="341.7891" y2="341.7891"/><text fill="#000000" font-family="Courier" font-size="13" lengthAdjust="spacingAndGlyphs" textLength="272" x="1468" y="336.7231">Return the result of the operation</text><polygon fill="#383838" points="990,366.9219,980,370.9219,990,374.9219,986,370.9219" style="stroke: #383838; stroke-width: 1.0;"/><line style="stroke: #383838; stroke-width: 1.0;" x1="984" x2="1450" y1="370.9219" y2="370.9219"/><text fill="#000000" font-family="Courier" font-size="13" lengthAdjust="spacingAndGlyphs" textLength="448" x="996" y="365.856">Return the product information with the updated quantity</text><polygon fill="#383838" points="502,396.0547,492,400.0547,502,404.0547,498,400.0547" style="stroke: #383838; stroke-width: 1.0;"/><line style="stroke: #383838; stroke-width: 1.0;" x1="496" x2="978" y1="400.0547" y2="400.0547"/><text fill="#000000" font-family="Courier" font-size="13" lengthAdjust="spacingAndGlyphs" textLength="360" x="508" y="394.9888">Return the updated information of the product</text><polygon fill="#383838" points="1439,425.1875,1449,429.1875,1439,433.1875,1443,429.1875" style="stroke: #383838; stroke-width: 1.0;"/><line style="stroke: #383838; stroke-width: 1.0;" x1="979" x2="1445" y1="429.1875" y2="429.1875"/><text fill="#000000" font-family="Courier" font-size="13" lengthAdjust="spacingAndGlyphs" textLength="344" x="986" y="424.1216">GET request for the list of done operations</text><polygon fill="#383838" points="990,454.3203,980,458.3203,990,462.3203,986,458.3203" style="stroke: #383838; stroke-width: 1.0;"/><line style="stroke: #383838; stroke-width: 1.0;" x1="984" x2="1450" y1="458.3203" y2="458.3203"/><text fill="#000000" font-family="Courier" font-size="13" lengthAdjust="spacingAndGlyphs" textLength="272" x="996" y="453.2544">Return the list of done operations</text><polygon fill="#383838" points="314,483.4531,304,487.4531,314,491.4531,310,487.4531" style="stroke: #383838; stroke-width: 1.0;"/><line style="stroke: #383838; stroke-width: 1.0;" x1="308" x2="978" y1="487.4531" y2="487.4531"/><text fill="#000000" font-family="Courier" font-size="13" lengthAdjust="spacingAndGlyphs" textLength="320" x="320" y="482.3872">Send the updated list of done operations</text></g></svg>