<?xml version="1.0" encoding="UTF-8" standalone="no"?><svg xmlns="http://www.w3.org/2000/svg" xmlns:xlink="http://www.w3.org/1999/xlink" contentScriptType="application/ecmascript" contentStyleType="text/css" height="574px" preserveAspectRatio="none" style="width:2529px;height:574px;" version="1.1" viewBox="0 0 2529 574" width="2529px" zoomAndPan="magnify"><defs/><g><text fill="#000000" font-family="Courier" font-size="14" font-weight="bold" lengthAdjust="spacingAndGlyphs" textLength="96" x="1215" y="22.9951">Process View</text><line style="stroke: #383838; stroke-width: 1.0; stroke-dasharray: 5.0,5.0;" x1="107" x2="107" y1="64.5938" y2="534.5859"/><line style="stroke: #383838; stroke-width: 1.0; stroke-dasharray: 5.0,5.0;" x1="303" x2="303" y1="64.5938" y2="534.5859"/><line style="stroke: #383838; stroke-width: 1.0; stroke-dasharray: 5.0,5.0;" x1="439" x2="439" y1="64.5938" y2="534.5859"/><line style="stroke: #383838; stroke-width: 1.0; stroke-dasharray: 5.0,5.0;" x1="579" x2="579" y1="64.5938" y2="534.5859"/><line style="stroke: #383838; stroke-width: 1.0; stroke-dasharray: 5.0,5.0;" x1="1123" x2="1123" y1="64.5938" y2="534.5859"/><line style="stroke: #383838; stroke-width: 1.0; stroke-dasharray: 5.0,5.0;" x1="1435" x2="1435" y1="64.5938" y2="534.5859"/><line style="stroke: #383838; stroke-width: 1.0; stroke-dasharray: 5.0,5.0;" x1="1611" x2="1611" y1="64.5938" y2="534.5859"/><line style="stroke: #383838; stroke-width: 1.0; stroke-dasharray: 5.0,5.0;" x1="2083" x2="2083" y1="64.5938" y2="534.5859"/><line style="stroke: #383838; stroke-width: 1.0; stroke-dasharray: 5.0,5.0;" x1="2263" x2="2263" y1="64.5938" y2="534.5859"/><line style="stroke: #383838; stroke-width: 1.0; stroke-dasharray: 5.0,5.0;" x1="2443" x2="2443" y1="64.5938" y2="534.5859"/><rect fill="#F8F8F8" height="30.2969" style="stroke: #383838; stroke-width: 1.5;" width="198" x="8" y="33.2969"/><text fill="#000000" font-family="Courier" font-size="14" lengthAdjust="spacingAndGlyphs" textLength="184" x="15" y="53.292">html5-qrcode &lt;external&gt;</text><rect fill="#F8F8F8" height="30.2969" style="stroke: #383838; stroke-width: 1.5;" width="198" x="8" y="533.5859"/><text fill="#000000" font-family="Courier" font-size="14" lengthAdjust="spacingAndGlyphs" textLength="184" x="15" y="553.5811">html5-qrcode &lt;external&gt;</text><rect fill="#F8F8F8" height="30.2969" style="stroke: #383838; stroke-width: 1.5;" width="174" x="216" y="33.2969"/><text fill="#000000" font-family="Courier" font-size="14" lengthAdjust="spacingAndGlyphs" textLength="160" x="223" y="53.292">Mobile Web interface</text><rect fill="#F8F8F8" height="30.2969" style="stroke: #383838; stroke-width: 1.5;" width="174" x="216" y="533.5859"/><text fill="#000000" font-family="Courier" font-size="14" lengthAdjust="spacingAndGlyphs" textLength="160" x="223" y="553.5811">Mobile Web interface</text><rect fill="#F8F8F8" height="30.2969" style="stroke: #383838; stroke-width: 1.5;" width="78" x="400" y="33.2969"/><text fill="#000000" font-family="Courier" font-size="14" lengthAdjust="spacingAndGlyphs" textLength="64" x="407" y="53.292">Watchdog</text><rect fill="#F8F8F8" height="30.2969" style="stroke: #383838; stroke-width: 1.5;" width="78" x="400" y="533.5859"/><text fill="#000000" font-family="Courier" font-size="14" lengthAdjust="spacingAndGlyphs" textLength="64" x="407" y="553.5811">Watchdog</text><rect fill="#F8F8F8" height="30.2969" style="stroke: #383838; stroke-width: 1.5;" width="182" x="488" y="33.2969"/><text fill="#000000" font-family="Courier" font-size="14" lengthAdjust="spacingAndGlyphs" textLength="168" x="495" y="53.292">Desktop Web interface</text><rect fill="#F8F8F8" height="30.2969" style="stroke: #383838; stroke-width: 1.5;" width="182" x="488" y="533.5859"/><text fill="#000000" font-family="Courier" font-size="14" lengthAdjust="spacingAndGlyphs" textLength="168" x="495" y="553.5811">Desktop Web interface</text><rect fill="#F8F8F8" height="30.2969" style="stroke: #383838; stroke-width: 1.5;" width="126" x="1060" y="33.2969"/><text fill="#000000" font-family="Courier" font-size="14" lengthAdjust="spacingAndGlyphs" textLength="112" x="1067" y="53.292">Express server</text><rect fill="#F8F8F8" height="30.2969" style="stroke: #383838; stroke-width: 1.5;" width="126" x="1060" y="533.5859"/><text fill="#000000" font-family="Courier" font-size="14" lengthAdjust="spacingAndGlyphs" textLength="112" x="1067" y="553.5811">Express server</text><rect fill="#F8F8F8" height="30.2969" style="stroke: #383838; stroke-width: 1.5;" width="150" x="1360" y="33.2969"/><text fill="#000000" font-family="Courier" font-size="14" lengthAdjust="spacingAndGlyphs" textLength="136" x="1367" y="53.292">Operation handler</text><rect fill="#F8F8F8" height="30.2969" style="stroke: #383838; stroke-width: 1.5;" width="150" x="1360" y="533.5859"/><text fill="#000000" font-family="Courier" font-size="14" lengthAdjust="spacingAndGlyphs" textLength="136" x="1367" y="553.5811">Operation handler</text><rect fill="#F8F8F8" height="30.2969" style="stroke: #383838; stroke-width: 1.5;" width="166" x="1528" y="33.2969"/><text fill="#000000" font-family="Courier" font-size="14" font-weight="bold" lengthAdjust="spacingAndGlyphs" textLength="152" x="1535" y="53.292">Statistics analyzer</text><rect fill="#F8F8F8" height="30.2969" style="stroke: #383838; stroke-width: 1.5;" width="166" x="1528" y="533.5859"/><text fill="#000000" font-family="Courier" font-size="14" font-weight="bold" lengthAdjust="spacingAndGlyphs" textLength="152" x="1535" y="553.5811">Statistics analyzer</text><rect fill="#F8F8F8" height="30.2969" style="stroke: #383838; stroke-width: 1.5;" width="150" x="2008" y="33.2969"/><text fill="#000000" font-family="Courier" font-size="14" lengthAdjust="spacingAndGlyphs" textLength="136" x="2015" y="53.292">Products database</text><rect fill="#F8F8F8" height="30.2969" style="stroke: #383838; stroke-width: 1.5;" width="150" x="2008" y="533.5859"/><text fill="#000000" font-family="Courier" font-size="14" lengthAdjust="spacingAndGlyphs" textLength="136" x="2015" y="553.5811">Products database</text><rect fill="#F8F8F8" height="30.2969" style="stroke: #383838; stroke-width: 1.5;" width="190" x="2168" y="33.2969"/><text fill="#000000" font-family="Courier" font-size="14" lengthAdjust="spacingAndGlyphs" textLength="168" x="2175" y="53.292">Transactions database</text><rect fill="#F8F8F8" height="30.2969" style="stroke: #383838; stroke-width: 1.5;" width="190" x="2168" y="533.5859"/><text fill="#000000" font-family="Courier" font-size="14" lengthAdjust="spacingAndGlyphs" textLength="168" x="2175" y="553.5811">Transactions database</text><rect fill="#F8F8F8" height="30.2969" style="stroke: #383838; stroke-width: 1.5;" width="150" x="2368" y="33.2969"/><text fill="#000000" font-family="Courier" font-size="14" lengthAdjust="spacingAndGlyphs" textLength="136" x="2375" y="53.292">Barcodes database</text><rect fill="#F8F8F8" height="30.2969" style="stroke: #383838; stroke-width: 1.5;" width="150" x="2368" y="533.5859"/><text fill="#000000" font-family="Courier" font-size="14" lengthAdjust="spacingAndGlyphs" textLength="136" x="2375" y="553.5811">Barcodes database</text><polygon fill="#383838" points="1111,91.7266,1121,95.7266,1111,99.7266,1115,95.7266" style="stroke: #383838; stroke-width: 1.0;"/><line style="stroke: #383838; stroke-width: 1.0;" x1="579" x2="1117" y1="95.7266" y2="95.7266"/><text fill="#000000" font-family="Courier" font-size="13" lengthAdjust="spacingAndGlyphs" textLength="160" x="586" y="90.6606">Request product list</text><polygon fill="#383838" points="1423,120.8594,1433,124.8594,1423,128.8594,1427,124.8594" style="stroke: #383838; stroke-width: 1.0;"/><line style="stroke: #383838; stroke-width: 1.0;" x1="1123" x2="1429" y1="124.8594" y2="124.8594"/><text fill="#000000" font-family="Courier" font-size="13" lengthAdjust="spacingAndGlyphs" textLength="160" x="1130" y="119.7935">Request product list</text><polygon fill="#383838" points="2071,149.9922,2081,153.9922,2071,157.9922,2075,153.9922" style="stroke: #383838; stroke-width: 1.0;"/><line style="stroke: #383838; stroke-width: 1.0;" x1="1435" x2="2077" y1="153.9922" y2="153.9922"/><text fill="#000000" font-family="Courier" font-size="13" lengthAdjust="spacingAndGlyphs" textLength="296" x="1442" y="148.9263">Request product list with name and ID</text><polygon fill="#383838" points="1446,179.125,1436,183.125,1446,187.125,1442,183.125" style="stroke: #383838; stroke-width: 1.0;"/><line style="stroke: #383838; stroke-width: 1.0;" x1="1440" x2="2082" y1="183.125" y2="183.125"/><text fill="#000000" font-family="Courier" font-size="13" lengthAdjust="spacingAndGlyphs" textLength="288" x="1452" y="178.0591">Return product list with name and ID</text><polygon fill="#383838" points="1134,208.2578,1124,212.2578,1134,216.2578,1130,212.2578" style="stroke: #383838; stroke-width: 1.0;"/><line style="stroke: #383838; stroke-width: 1.0;" x1="1128" x2="1434" y1="212.2578" y2="212.2578"/><text fill="#000000" font-family="Courier" font-size="13" lengthAdjust="spacingAndGlyphs" textLength="288" x="1140" y="207.1919">Return product list with name and ID</text><polygon fill="#383838" points="590,237.3906,580,241.3906,590,245.3906,586,241.3906" style="stroke: #383838; stroke-width: 1.0;"/><line style="stroke: #383838; stroke-width: 1.0;" x1="584" x2="1122" y1="241.3906" y2="241.3906"/><text fill="#000000" font-family="Courier" font-size="13" lengthAdjust="spacingAndGlyphs" textLength="288" x="596" y="236.3247">Return product list with name and ID</text><polygon fill="#383838" points="1111,266.5234,1121,270.5234,1111,274.5234,1115,270.5234" style="stroke: #383838; stroke-width: 1.0;"/><line style="stroke: #383838; stroke-width: 1.0;" x1="579" x2="1117" y1="270.5234" y2="270.5234"/><text fill="#000000" font-family="Courier" font-size="13" lengthAdjust="spacingAndGlyphs" textLength="520" x="586" y="265.4575">Request statistics for a product using the ID and a time interval</text><polygon fill="#383838" points="1599,295.6563,1609,299.6563,1599,303.6563,1603,299.6563" style="stroke: #383838; stroke-width: 1.0;"/><line style="stroke: #383838; stroke-width: 1.0;" x1="1123" x2="1605" y1="299.6563" y2="299.6563"/><text fill="#000000" font-family="Courier" font-size="13" lengthAdjust="spacingAndGlyphs" textLength="464" x="1130" y="294.5903">Request statistics for the product ID in the time interval</text><polygon fill="#383838" points="2071,324.7891,2081,328.7891,2071,332.7891,2075,328.7891" style="stroke: #383838; stroke-width: 1.0;"/><line style="stroke: #383838; stroke-width: 1.0;" x1="1611" x2="2077" y1="328.7891" y2="328.7891"/><text fill="#000000" font-family="Courier" font-size="13" lengthAdjust="spacingAndGlyphs" textLength="448" x="1618" y="323.7231">Request the product amount using of the corresponding ID</text><polygon fill="#383838" points="1622,353.9219,1612,357.9219,1622,361.9219,1618,357.9219" style="stroke: #383838; stroke-width: 1.0;"/><line style="stroke: #383838; stroke-width: 1.0;" x1="1616" x2="2082" y1="357.9219" y2="357.9219"/><text fill="#000000" font-family="Courier" font-size="13" lengthAdjust="spacingAndGlyphs" textLength="440" x="1628" y="352.856">Return the product amount using of the corresponding ID</text><polygon fill="#383838" points="2251,383.0547,2261,387.0547,2251,391.0547,2255,387.0547" style="stroke: #383838; stroke-width: 1.0;"/><line style="stroke: #383838; stroke-width: 1.0;" x1="1611" x2="2257" y1="387.0547" y2="387.0547"/><text fill="#000000" font-family="Courier" font-size="13" lengthAdjust="spacingAndGlyphs" textLength="512" x="1618" y="381.9888">Request all the transaction for the product in the time interval</text><polygon fill="#383838" points="1622,412.1875,1612,416.1875,1622,420.1875,1618,416.1875" style="stroke: #383838; stroke-width: 1.0;"/><line style="stroke: #383838; stroke-width: 1.0;" x1="1616" x2="2262" y1="416.1875" y2="416.1875"/><text fill="#000000" font-family="Courier" font-size="13" lengthAdjust="spacingAndGlyphs" textLength="504" x="1628" y="411.1216">Return all the transaction for the product in the time interval</text><line style="stroke: #383838; stroke-width: 1.0;" x1="1611" x2="1653" y1="445.3203" y2="445.3203"/><line style="stroke: #383838; stroke-width: 1.0;" x1="1653" x2="1653" y1="445.3203" y2="458.3203"/><line style="stroke: #383838; stroke-width: 1.0;" x1="1612" x2="1653" y1="458.3203" y2="458.3203"/><polygon fill="#383838" points="1622,454.3203,1612,458.3203,1622,462.3203,1618,458.3203" style="stroke: #383838; stroke-width: 1.0;"/><text fill="#000000" font-family="Courier" font-size="13" lengthAdjust="spacingAndGlyphs" textLength="192" x="1618" y="440.2544">Calculate the statistics</text><polygon fill="#383838" points="1134,483.4531,1124,487.4531,1134,491.4531,1130,487.4531" style="stroke: #383838; stroke-width: 1.0;"/><line style="stroke: #383838; stroke-width: 1.0;" x1="1128" x2="1610" y1="487.4531" y2="487.4531"/><text fill="#000000" font-family="Courier" font-size="13" lengthAdjust="spacingAndGlyphs" textLength="168" x="1140" y="482.3872">Return the statistics</text><polygon fill="#383838" points="590,512.5859,580,516.5859,590,520.5859,586,516.5859" style="stroke: #383838; stroke-width: 1.0;"/><line style="stroke: #383838; stroke-width: 1.0;" x1="584" x2="1122" y1="516.5859" y2="516.5859"/><text fill="#000000" font-family="Courier" font-size="13" lengthAdjust="spacingAndGlyphs" textLength="168" x="596" y="511.52">Return the statistics</text></g></svg>