<?xml version="1.0" encoding="UTF-8" standalone="no"?><svg xmlns="http://www.w3.org/2000/svg" xmlns:xlink="http://www.w3.org/1999/xlink" contentScriptType="application/ecmascript" contentStyleType="text/css" height="400px" preserveAspectRatio="none" style="width:1581px;height:400px;" version="1.1" viewBox="0 0 1581 400" width="1581px" zoomAndPan="magnify"><defs/><g><text fill="#000000" font-family="Courier" font-size="14" font-weight="bold" lengthAdjust="spacingAndGlyphs" textLength="96" x="741" y="22.9951">Process View</text><line style="stroke: #383838; stroke-width: 1.0; stroke-dasharray: 5.0,5.0;" x1="107" x2="107" y1="64.5938" y2="359.7891"/><line style="stroke: #383838; stroke-width: 1.0; stroke-dasharray: 5.0,5.0;" x1="303" x2="303" y1="64.5938" y2="359.7891"/><line style="stroke: #383838; stroke-width: 1.0; stroke-dasharray: 5.0,5.0;" x1="491" x2="491" y1="64.5938" y2="359.7891"/><line style="stroke: #383838; stroke-width: 1.0; stroke-dasharray: 5.0,5.0;" x1="755" x2="755" y1="64.5938" y2="359.7891"/><line style="stroke: #383838; stroke-width: 1.0; stroke-dasharray: 5.0,5.0;" x1="1019" x2="1019" y1="64.5938" y2="359.7891"/><line style="stroke: #383838; stroke-width: 1.0; stroke-dasharray: 5.0,5.0;" x1="1339" x2="1339" y1="64.5938" y2="359.7891"/><line style="stroke: #383838; stroke-width: 1.0; stroke-dasharray: 5.0,5.0;" x1="1495" x2="1495" y1="64.5938" y2="359.7891"/><rect fill="#F8F8F8" height="30.2969" style="stroke: #383838; stroke-width: 1.5;" width="198" x="8" y="33.2969"/><text fill="#000000" font-family="Courier" font-size="14" lengthAdjust="spacingAndGlyphs" textLength="184" x="15" y="53.292">html5-qrcode &lt;external&gt;</text><rect fill="#F8F8F8" height="30.2969" style="stroke: #383838; stroke-width: 1.5;" width="198" x="8" y="358.7891"/><text fill="#000000" font-family="Courier" font-size="14" lengthAdjust="spacingAndGlyphs" textLength="184" x="15" y="378.7842">html5-qrcode &lt;external&gt;</text><rect fill="#F8F8F8" height="30.2969" style="stroke: #383838; stroke-width: 1.5;" width="174" x="216" y="33.2969"/><text fill="#000000" font-family="Courier" font-size="14" lengthAdjust="spacingAndGlyphs" textLength="160" x="223" y="53.292">Mobile Web interface</text><rect fill="#F8F8F8" height="30.2969" style="stroke: #383838; stroke-width: 1.5;" width="174" x="216" y="358.7891"/><text fill="#000000" font-family="Courier" font-size="14" lengthAdjust="spacingAndGlyphs" textLength="160" x="223" y="378.7842">Mobile Web interface</text><rect fill="#F8F8F8" height="30.2969" style="stroke: #383838; stroke-width: 1.5;" width="182" x="400" y="33.2969"/><text fill="#000000" font-family="Courier" font-size="14" lengthAdjust="spacingAndGlyphs" textLength="168" x="407" y="53.292">Desktop Web interface</text><rect fill="#F8F8F8" height="30.2969" style="stroke: #383838; stroke-width: 1.5;" width="182" x="400" y="358.7891"/><text fill="#000000" font-family="Courier" font-size="14" lengthAdjust="spacingAndGlyphs" textLength="168" x="407" y="378.7842">Desktop Web interface</text><rect fill="#F8F8F8" height="30.2969" style="stroke: #383838; stroke-width: 1.5;" width="126" x="692" y="33.2969"/><text fill="#000000" font-family="Courier" font-size="14" lengthAdjust="spacingAndGlyphs" textLength="112" x="699" y="53.292">Express server</text><rect fill="#F8F8F8" height="30.2969" style="stroke: #383838; stroke-width: 1.5;" width="126" x="692" y="358.7891"/><text fill="#000000" font-family="Courier" font-size="14" lengthAdjust="spacingAndGlyphs" textLength="112" x="699" y="378.7842">Express server</text><rect fill="#F8F8F8" height="30.2969" style="stroke: #383838; stroke-width: 1.5;" width="150" x="944" y="33.2969"/><text fill="#000000" font-family="Courier" font-size="14" lengthAdjust="spacingAndGlyphs" textLength="136" x="951" y="53.292">Operation handler</text><rect fill="#F8F8F8" height="30.2969" style="stroke: #383838; stroke-width: 1.5;" width="150" x="944" y="358.7891"/><text fill="#000000" font-family="Courier" font-size="14" lengthAdjust="spacingAndGlyphs" textLength="136" x="951" y="378.7842">Operation handler</text><rect fill="#F8F8F8" height="30.2969" style="stroke: #383838; stroke-width: 1.5;" width="142" x="1268" y="33.2969"/><text fill="#000000" font-family="Courier" font-size="14" lengthAdjust="spacingAndGlyphs" textLength="128" x="1275" y="53.292">Barcode database</text><rect fill="#F8F8F8" height="30.2969" style="stroke: #383838; stroke-width: 1.5;" width="142" x="1268" y="358.7891"/><text fill="#000000" font-family="Courier" font-size="14" lengthAdjust="spacingAndGlyphs" textLength="128" x="1275" y="378.7842">Barcode database</text><rect fill="#F8F8F8" height="30.2969" style="stroke: #383838; stroke-width: 1.5;" width="150" x="1420" y="33.2969"/><text fill="#000000" font-family="Courier" font-size="14" lengthAdjust="spacingAndGlyphs" textLength="128" x="1427" y="53.292">Product database</text><rect fill="#F8F8F8" height="30.2969" style="stroke: #383838; stroke-width: 1.5;" width="150" x="1420" y="358.7891"/><text fill="#000000" font-family="Courier" font-size="14" lengthAdjust="spacingAndGlyphs" textLength="128" x="1427" y="378.7842">Product database</text><line style="stroke: #383838; stroke-width: 1.0;" x1="491" x2="533" y1="95.7266" y2="95.7266"/><line style="stroke: #383838; stroke-width: 1.0;" x1="533" x2="533" y1="95.7266" y2="108.7266"/><line style="stroke: #383838; stroke-width: 1.0;" x1="492" x2="533" y1="108.7266" y2="108.7266"/><polygon fill="#383838" points="502,104.7266,492,108.7266,502,112.7266,498,108.7266" style="stroke: #383838; stroke-width: 1.0;"/><text fill="#000000" font-family="Courier" font-size="13" lengthAdjust="spacingAndGlyphs" textLength="112" x="498" y="90.6606">Read a barcode</text><polygon fill="#383838" points="743,133.8594,753,137.8594,743,141.8594,747,137.8594" style="stroke: #383838; stroke-width: 1.0;"/><line style="stroke: #383838; stroke-width: 1.0;" x1="491" x2="749" y1="137.8594" y2="137.8594"/><text fill="#000000" font-family="Courier" font-size="13" lengthAdjust="spacingAndGlyphs" textLength="200" x="498" y="132.7935">POST request with barcode</text><polygon fill="#383838" points="1007,162.9922,1017,166.9922,1007,170.9922,1011,166.9922" style="stroke: #383838; stroke-width: 1.0;"/><line style="stroke: #383838; stroke-width: 1.0;" x1="755" x2="1013" y1="166.9922" y2="166.9922"/><text fill="#000000" font-family="Courier" font-size="13" lengthAdjust="spacingAndGlyphs" textLength="96" x="762" y="161.9263">Send barcode</text><polygon fill="#383838" points="1327,192.125,1337,196.125,1327,200.125,1331,196.125" style="stroke: #383838; stroke-width: 1.0;"/><line style="stroke: #383838; stroke-width: 1.0;" x1="1019" x2="1333" y1="196.125" y2="196.125"/><text fill="#000000" font-family="Courier" font-size="13" lengthAdjust="spacingAndGlyphs" textLength="296" x="1026" y="191.0591">Query for product ID based on barcode</text><polygon fill="#383838" points="1030,221.2578,1020,225.2578,1030,229.2578,1026,225.2578" style="stroke: #383838; stroke-width: 1.0;"/><line style="stroke: #383838; stroke-width: 1.0;" x1="1024" x2="1338" y1="225.2578" y2="225.2578"/><text fill="#000000" font-family="Courier" font-size="13" lengthAdjust="spacingAndGlyphs" textLength="256" x="1036" y="220.1919">Return the product ID if founded</text><polygon fill="#383838" points="1483,250.3906,1493,254.3906,1483,258.3906,1487,254.3906" style="stroke: #383838; stroke-width: 1.0;"/><line style="stroke: #383838; stroke-width: 1.0;" x1="1019" x2="1489" y1="254.3906" y2="254.3906"/><text fill="#000000" font-family="Courier" font-size="13" lengthAdjust="spacingAndGlyphs" textLength="392" x="1026" y="249.3247">Query for product information based on product ID</text><polygon fill="#383838" points="1030,279.5234,1020,283.5234,1030,287.5234,1026,283.5234" style="stroke: #383838; stroke-width: 1.0;"/><line style="stroke: #383838; stroke-width: 1.0;" x1="1024" x2="1494" y1="283.5234" y2="283.5234"/><text fill="#000000" font-family="Courier" font-size="13" lengthAdjust="spacingAndGlyphs" textLength="328" x="1036" y="278.4575">Return the product information if founded</text><polygon fill="#383838" points="766,308.6563,756,312.6563,766,316.6563,762,312.6563" style="stroke: #383838; stroke-width: 1.0;"/><line style="stroke: #383838; stroke-width: 1.0;" x1="760" x2="1018" y1="312.6563" y2="312.6563"/><text fill="#000000" font-family="Courier" font-size="13" lengthAdjust="spacingAndGlyphs" textLength="240" x="772" y="307.5903">Return the product information</text><polygon fill="#383838" points="502,337.7891,492,341.7891,502,345.7891,498,341.7891" style="stroke: #383838; stroke-width: 1.0;"/><line style="stroke: #383838; stroke-width: 1.0;" x1="496" x2="754" y1="341.7891" y2="341.7891"/><text fill="#000000" font-family="Courier" font-size="13" lengthAdjust="spacingAndGlyphs" textLength="240" x="508" y="336.7231">Return the product information</text></g></svg>