<?xml version="1.0" encoding="UTF-8" standalone="no"?><svg xmlns="http://www.w3.org/2000/svg" xmlns:xlink="http://www.w3.org/1999/xlink" contentScriptType="application/ecmascript" contentStyleType="text/css" height="978px" preserveAspectRatio="none" style="width:1245px;height:978px;" version="1.1" viewBox="0 0 1245 978" width="1245px" zoomAndPan="magnify"><defs/><g><text fill="#000000" font-family="sans-serif" font-size="18" lengthAdjust="spacingAndGlyphs" textLength="111" x="570.5" y="16.708">Logical View</text><rect fill="#FFFFFF" height="219.5" style="stroke: #000000; stroke-width: 1.5;" width="312" x="227" y="44.9531"/><rect fill="#FFFFFF" height="10" style="stroke: #000000; stroke-width: 1.5;" width="15" x="519" y="49.9531"/><rect fill="#FFFFFF" height="2" style="stroke: #000000; stroke-width: 1.5;" width="4" x="517" y="51.9531"/><rect fill="#FFFFFF" height="2" style="stroke: #000000; stroke-width: 1.5;" width="4" x="517" y="55.9531"/><text fill="#000000" font-family="sans-serif" font-size="14" font-weight="bold" lengthAdjust="spacingAndGlyphs" textLength="73" x="346.5" y="70.9482">Database</text><rect fill="#F8F8F8" height="36.2969" style="stroke: #383838; stroke-width: 1.5;" width="107" x="256.5" y="212.4531"/><rect fill="#F8F8F8" height="5" style="stroke: #383838; stroke-width: 1.5;" width="10" x="251.5" y="217.4531"/><rect fill="#F8F8F8" height="5" style="stroke: #383838; stroke-width: 1.5;" width="10" x="251.5" y="238.75"/><text fill="#000000" font-family="sans-serif" font-size="14" lengthAdjust="spacingAndGlyphs" textLength="79" x="266.5" y="235.4482">Product DB</text><rect fill="#F8F8F8" height="36.2969" style="stroke: #383838; stroke-width: 1.5;" width="111" x="412.5" y="79.9531"/><rect fill="#F8F8F8" height="5" style="stroke: #383838; stroke-width: 1.5;" width="10" x="407.5" y="84.9531"/><rect fill="#F8F8F8" height="5" style="stroke: #383838; stroke-width: 1.5;" width="10" x="407.5" y="106.25"/><text fill="#000000" font-family="sans-serif" font-size="14" lengthAdjust="spacingAndGlyphs" textLength="83" x="422.5" y="102.9482">Barcode DB</text><rect fill="#F8F8F8" height="36.2969" style="stroke: #383838; stroke-width: 1.5;" width="134" x="243" y="79.9531"/><rect fill="#F8F8F8" height="5" style="stroke: #383838; stroke-width: 1.5;" width="10" x="238" y="84.9531"/><rect fill="#F8F8F8" height="5" style="stroke: #383838; stroke-width: 1.5;" width="10" x="238" y="106.25"/><text fill="#000000" font-family="sans-serif" font-size="14" lengthAdjust="spacingAndGlyphs" textLength="106" x="253" y="102.9482">Transaction DB</text><rect fill="#F8F8F8" height="36.2969" style="stroke: #383838; stroke-width: 1.5;" width="196" x="100" y="684.9531"/><rect fill="#F8F8F8" height="5" style="stroke: #383838; stroke-width: 1.5;" width="10" x="95" y="689.9531"/><rect fill="#F8F8F8" height="5" style="stroke: #383838; stroke-width: 1.5;" width="10" x="95" y="711.25"/><text fill="#000000" font-family="sans-serif" font-size="14" lengthAdjust="spacingAndGlyphs" textLength="176" x="110" y="707.9482">html5-qrcode &lt;external&gt;</text><ellipse cx="340" cy="702.9531" fill="#F8F8F8" rx="8" ry="8" style="stroke: #383838; stroke-width: 2.0;"/><ellipse cx="202" cy="230.4531" fill="#F8F8F8" rx="8" ry="8" style="stroke: #383838; stroke-width: 2.0;"/><ellipse cx="886" cy="230.4531" fill="#F8F8F8" rx="8" ry="8" style="stroke: #383838; stroke-width: 2.0;"/><ellipse cx="696" cy="230.4531" fill="#F8F8F8" rx="8" ry="8" style="stroke: #383838; stroke-width: 2.0;"/><rect fill="#F8F8F8" height="36.2969" style="stroke: #383838; stroke-width: 1.5;" width="176" x="634" y="684.9531"/><rect fill="#F8F8F8" height="5" style="stroke: #383838; stroke-width: 1.5;" width="10" x="629" y="689.9531"/><rect fill="#F8F8F8" height="5" style="stroke: #383838; stroke-width: 1.5;" width="10" x="629" y="711.25"/><text fill="#000000" font-family="sans-serif" font-size="14" lengthAdjust="spacingAndGlyphs" textLength="156" x="644" y="707.9482">Desktop web interface</text><rect fill="#F8F8F8" height="36.2969" style="stroke: #383838; stroke-width: 1.5;" width="162" x="384" y="684.9531"/><rect fill="#F8F8F8" height="5" style="stroke: #383838; stroke-width: 1.5;" width="10" x="379" y="689.9531"/><rect fill="#F8F8F8" height="5" style="stroke: #383838; stroke-width: 1.5;" width="10" x="379" y="711.25"/><text fill="#000000" font-family="sans-serif" font-size="14" lengthAdjust="spacingAndGlyphs" textLength="142" x="394" y="707.9482">Mobile web interface</text><rect fill="#F8F8F8" height="36.2969" style="stroke: #383838; stroke-width: 1.5;" width="144" x="624" y="344.9531"/><rect fill="#F8F8F8" height="5" style="stroke: #383838; stroke-width: 1.5;" width="10" x="619" y="349.9531"/><rect fill="#F8F8F8" height="5" style="stroke: #383838; stroke-width: 1.5;" width="10" x="619" y="371.25"/><text fill="#000000" font-family="sans-serif" font-size="14" lengthAdjust="spacingAndGlyphs" textLength="124" x="634" y="367.9482">Operation handler</text><ellipse cx="696" cy="532.9531" fill="#F8F8F8" rx="8" ry="8" style="stroke: #383838; stroke-width: 2.0;"/><rect fill="#F8F8F8" height="36.2969" style="stroke: #383838; stroke-width: 1.5;" width="123" x="528.5" y="514.9531"/><rect fill="#F8F8F8" height="5" style="stroke: #383838; stroke-width: 1.5;" width="10" x="523.5" y="519.9531"/><rect fill="#F8F8F8" height="5" style="stroke: #383838; stroke-width: 1.5;" width="10" x="523.5" y="541.25"/><text fill="#000000" font-family="sans-serif" font-size="14" lengthAdjust="spacingAndGlyphs" textLength="103" x="538.5" y="537.9482">Express Server</text><ellipse cx="590" cy="702.9531" fill="#F8F8F8" rx="8" ry="8" style="stroke: #383838; stroke-width: 2.0;"/><path d="M232.5,841.9531 L232.5,905.3516 A0,0 0 0 0 232.5,905.3516 L447.5,905.3516 A0,0 0 0 0 447.5,905.3516 L447.5,851.9531 L437.5,841.9531 L344,841.9531 L340,712.0831 L336,841.9531 L232.5,841.9531 A0,0 0 0 0 232.5,841.9531 " fill="#ECECEC" style="stroke: #383838; stroke-width: 1.0;"/><path d="M437.5,841.9531 L437.5,851.9531 L447.5,851.9531 L437.5,841.9531 " fill="#ECECEC" style="stroke: #383838; stroke-width: 1.0;"/><text fill="#000000" font-family="sans-serif" font-size="13" lengthAdjust="spacingAndGlyphs" textLength="72" x="238.5" y="859.02">operations:</text><line style="stroke: #383838; stroke-width: 1.0; stroke-dasharray: 1.0,2.0;" x1="233.5" x2="446.5" y1="862.0859" y2="862.0859"/><text fill="#000000" font-family="sans-serif" font-size="13" lengthAdjust="spacingAndGlyphs" textLength="194" x="238.5" y="878.1528">start(camera, config, callback)</text><text fill="#000000" font-family="sans-serif" font-size="13" lengthAdjust="spacingAndGlyphs" textLength="38" x="238.5" y="893.2856">stop()</text><path d="M517.5,780.9531 L517.5,966.2813 A0,0 0 0 0 517.5,966.2813 L662.5,966.2813 A0,0 0 0 0 662.5,966.2813 L662.5,790.9531 L652.5,780.9531 L594,780.9531 L590,712.0831 L586,780.9531 L517.5,780.9531 A0,0 0 0 0 517.5,780.9531 " fill="#ECECEC" style="stroke: #383838; stroke-width: 1.0;"/><path d="M652.5,780.9531 L652.5,790.9531 L662.5,790.9531 L652.5,780.9531 " fill="#ECECEC" style="stroke: #383838; stroke-width: 1.0;"/><text fill="#000000" font-family="sans-serif" font-size="13" lengthAdjust="spacingAndGlyphs" textLength="72" x="523.5" y="798.02">operations:</text><line style="stroke: #383838; stroke-width: 1.0; stroke-dasharray: 1.0,2.0;" x1="518.5" x2="661.5" y1="801.0859" y2="801.0859"/><text fill="#000000" font-family="sans-serif" font-size="13" lengthAdjust="spacingAndGlyphs" textLength="56" x="523.5" y="817.1528">POST(...)</text><text fill="#000000" font-family="sans-serif" font-size="13" lengthAdjust="spacingAndGlyphs" textLength="47" x="523.5" y="832.2856">GET(...)</text><text fill="#000000" font-family="sans-serif" font-size="13" lengthAdjust="spacingAndGlyphs" textLength="70" x="523.5" y="847.4185">DELETE(...)</text><line style="stroke: #383838; stroke-width: 1.0;" x1="518.5" x2="661.5" y1="854.4844" y2="854.4844"/><text fill="#000000" font-family="sans-serif" font-size="13" lengthAdjust="spacingAndGlyphs" textLength="47" x="523.5" y="870.5513">events:</text><line style="stroke: #383838; stroke-width: 1.0; stroke-dasharray: 1.0,2.0;" x1="518.5" x2="661.5" y1="877.6172" y2="877.6172"/><text fill="#000000" font-family="sans-serif" font-size="13" lengthAdjust="spacingAndGlyphs" textLength="46" x="523.5" y="893.6841">started</text><text fill="#000000" font-family="sans-serif" font-size="13" lengthAdjust="spacingAndGlyphs" textLength="85" x="523.5" y="908.8169">disconnected</text><text fill="#000000" font-family="sans-serif" font-size="13" lengthAdjust="spacingAndGlyphs" textLength="124" x="523.5" y="923.9497">update_transaction</text><text fill="#000000" font-family="sans-serif" font-size="13" lengthAdjust="spacingAndGlyphs" textLength="89" x="523.5" y="939.0825">item_updated</text><text fill="#000000" font-family="sans-serif" font-size="13" lengthAdjust="spacingAndGlyphs" textLength="61" x="523.5" y="954.2153">new_item</text><path d="M740.5,440.9531 L740.5,528.9531 L705.09,532.9531 L740.5,536.9531 L740.5,625.4141 A0,0 0 0 0 740.5,625.4141 L1233.5,625.4141 A0,0 0 0 0 1233.5,625.4141 L1233.5,450.9531 L1223.5,440.9531 L740.5,440.9531 A0,0 0 0 0 740.5,440.9531 " fill="#ECECEC" style="stroke: #383838; stroke-width: 1.0;"/><path d="M1223.5,440.9531 L1223.5,450.9531 L1233.5,450.9531 L1223.5,440.9531 " fill="#ECECEC" style="stroke: #383838; stroke-width: 1.0;"/><text fill="#000000" font-family="sans-serif" font-size="13" lengthAdjust="spacingAndGlyphs" textLength="72" x="746.5" y="458.02">operations:</text><line style="stroke: #383838; stroke-width: 1.0; stroke-dasharray: 1.0,2.0;" x1="741.5" x2="1232.5" y1="461.0859" y2="461.0859"/><text fill="#000000" font-family="sans-serif" font-size="13" lengthAdjust="spacingAndGlyphs" textLength="68" x="746.5" y="477.1528">load(code)</text><text fill="#000000" font-family="sans-serif" font-size="13" lengthAdjust="spacingAndGlyphs" textLength="105" x="746.5" y="492.2856">load(itemName)</text><text fill="#000000" font-family="sans-serif" font-size="13" lengthAdjust="spacingAndGlyphs" textLength="84" x="746.5" y="507.4185">unload(code)</text><text fill="#000000" font-family="sans-serif" font-size="13" lengthAdjust="spacingAndGlyphs" textLength="121" x="746.5" y="522.5513">unload(itemName)</text><text fill="#000000" font-family="sans-serif" font-size="13" lengthAdjust="spacingAndGlyphs" textLength="94" x="746.5" y="537.6841">getInfo(itemId)</text><text fill="#000000" font-family="sans-serif" font-size="13" lengthAdjust="spacingAndGlyphs" textLength="92" x="746.5" y="552.8169">delete(codeId)</text><text fill="#000000" font-family="sans-serif" font-size="13" lengthAdjust="spacingAndGlyphs" textLength="90" x="746.5" y="567.9497">delete(itemId)</text><text fill="#000000" font-family="sans-serif" font-size="13" lengthAdjust="spacingAndGlyphs" textLength="403" x="746.5" y="583.0825">addItem(Name, Position, Description, MinThr, Quantity, Weight)</text><text fill="#000000" font-family="sans-serif" font-size="13" lengthAdjust="spacingAndGlyphs" textLength="472" x="746.5" y="598.2153">updateItem(itemId, Name, Position, Description, MinThr, Quantity, Weight)</text><text fill="#000000" font-family="sans-serif" font-size="13" font-weight="bold" lengthAdjust="spacingAndGlyphs" textLength="107" x="746.5" y="613.3481">exportStatus()</text><path d="M6,175.9531 L6,284.75 A0,0 0 0 0 6,284.75 L158,284.75 A0,0 0 0 0 158,284.75 L158,234.4531 L192.8,230.4531 L158,226.4531 L158,185.9531 L148,175.9531 L6,175.9531 A0,0 0 0 0 6,175.9531 " fill="#ECECEC" style="stroke: #383838; stroke-width: 1.0;"/><path d="M148,175.9531 L148,185.9531 L158,185.9531 L148,175.9531 " fill="#ECECEC" style="stroke: #383838; stroke-width: 1.0;"/><text fill="#000000" font-family="sans-serif" font-size="13" lengthAdjust="spacingAndGlyphs" textLength="72" x="12" y="193.02">operations:</text><line style="stroke: #383838; stroke-width: 1.0; stroke-dasharray: 1.0,2.0;" x1="7" x2="157" y1="196.0859" y2="196.0859"/><text fill="#000000" font-family="sans-serif" font-size="13" lengthAdjust="spacingAndGlyphs" textLength="72" x="12" y="212.1528">insertOne()</text><text fill="#000000" font-family="sans-serif" font-size="13" lengthAdjust="spacingAndGlyphs" textLength="33" x="12" y="227.2856">find()</text><text fill="#000000" font-family="sans-serif" font-size="13" lengthAdjust="spacingAndGlyphs" textLength="59" x="12" y="242.4185">findOne()</text><text fill="#000000" font-family="sans-serif" font-size="13" lengthAdjust="spacingAndGlyphs" textLength="131" x="12" y="257.5513">findOneAndUpdate()</text><text fill="#000000" font-family="sans-serif" font-size="13" lengthAdjust="spacingAndGlyphs" textLength="0" x="16" y="272.6841"/><path d="M740.5,190.9531 L740.5,269.4844 A0,0 0 0 0 740.5,269.4844 L841.5,269.4844 A0,0 0 0 0 841.5,269.4844 L841.5,234.4531 L876.68,230.4531 L841.5,226.4531 L841.5,200.9531 L831.5,190.9531 L740.5,190.9531 A0,0 0 0 0 740.5,190.9531 " fill="#ECECEC" style="stroke: #383838; stroke-width: 1.0;"/><path d="M831.5,190.9531 L831.5,200.9531 L841.5,200.9531 L831.5,190.9531 " fill="#ECECEC" style="stroke: #383838; stroke-width: 1.0;"/><text fill="#000000" font-family="sans-serif" font-size="13" lengthAdjust="spacingAndGlyphs" textLength="72" x="746.5" y="208.02">operations:</text><line style="stroke: #383838; stroke-width: 1.0; stroke-dasharray: 1.0,2.0;" x1="741.5" x2="840.5" y1="211.0859" y2="211.0859"/><text fill="#000000" font-family="sans-serif" font-size="13" lengthAdjust="spacingAndGlyphs" textLength="80" x="746.5" y="227.1528">insertMany()</text><text fill="#000000" font-family="sans-serif" font-size="13" lengthAdjust="spacingAndGlyphs" textLength="76" x="746.5" y="242.2856">deleteOne()</text><text fill="#000000" font-family="sans-serif" font-size="13" lengthAdjust="spacingAndGlyphs" textLength="33" x="746.5" y="257.4185">find()</text><path d="M554.5,175.9531 L554.5,284.75 A0,0 0 0 0 554.5,284.75 L651.5,284.75 A0,0 0 0 0 651.5,284.75 L651.5,234.4531 L687,230.4531 L651.5,226.4531 L651.5,185.9531 L641.5,175.9531 L554.5,175.9531 A0,0 0 0 0 554.5,175.9531 " fill="#ECECEC" style="stroke: #383838; stroke-width: 1.0;"/><path d="M641.5,175.9531 L641.5,185.9531 L651.5,185.9531 L641.5,175.9531 " fill="#ECECEC" style="stroke: #383838; stroke-width: 1.0;"/><text fill="#000000" font-family="sans-serif" font-size="13" lengthAdjust="spacingAndGlyphs" textLength="72" x="560.5" y="193.02">operations:</text><line style="stroke: #383838; stroke-width: 1.0; stroke-dasharray: 1.0,2.0;" x1="555.5" x2="650.5" y1="196.0859" y2="196.0859"/><text fill="#000000" font-family="sans-serif" font-size="13" lengthAdjust="spacingAndGlyphs" textLength="72" x="560.5" y="212.1528">insertOne()</text><text fill="#000000" font-family="sans-serif" font-size="13" lengthAdjust="spacingAndGlyphs" textLength="33" x="560.5" y="227.2856">find()</text><text fill="#000000" font-family="sans-serif" font-size="13" lengthAdjust="spacingAndGlyphs" textLength="59" x="560.5" y="242.4185">findOne()</text><text fill="#000000" font-family="sans-serif" font-size="13" lengthAdjust="spacingAndGlyphs" textLength="76" x="560.5" y="257.5513">deleteOne()</text><text fill="#000000" font-family="sans-serif" font-size="13" lengthAdjust="spacingAndGlyphs" textLength="0" x="564.5" y="272.6841"/><path d="M296.18,702.9531 C307.71,702.9531 319.23,702.9531 330.76,702.9531 " fill="none" id="QR-QRI" style="stroke: #383838; stroke-width: 1.0;"/><path d="M447.34,116.0131 C417.06,141.0231 360.94,187.3731 330.66,212.3931 " fill="none" id="BDB-PDB" style="stroke: #383838; stroke-width: 1.0;"/><path d="M398.9549,165.1481 A10,10 0 0 0 389.9487 154.2445" fill="#FFFFFF" style="stroke: #383838; stroke-width: 1.5;"/><ellipse cx="389" cy="164.1994" fill="#FFFFFF" rx="6" ry="6" style="stroke: #383838; stroke-width: 1.5;"/><path d="M310,116.0131 C310,141.0231 310,187.3731 310,212.3931 " fill="none" id="TDB-PDB" style="stroke: #383838; stroke-width: 1.0;"/><path d="M317.0711,157.1283 A10,10 0 0 0 302.9289 157.1283" fill="#FFFFFF" style="stroke: #383838; stroke-width: 1.5;"/><ellipse cx="310" cy="164.1994" fill="#FFFFFF" rx="6" ry="6" style="stroke: #383838; stroke-width: 1.5;"/><path d="M256.4,230.4531 C241.36,230.4531 226.32,230.4531 211.28,230.4531 " fill="none" id="PDB-PDBI" style="stroke: #383838; stroke-width: 1.0;"/><path d="M523.62,103.8931 C618.62,113.3031 806.91,136.4431 859,175.9531 C873.92,187.2731 881.21,209.1231 884.22,221.1031 " fill="none" id="BDB-BDBI" style="stroke: #383838; stroke-width: 1.0;"/><path d="M377.01,112.5631 C479.28,133.4531 663.18,171.4631 669,175.9531 C683.82,187.3931 691.15,209.1931 694.19,221.1331 " fill="none" id="TDB-TDBI" style="stroke: #383838; stroke-width: 1.0;"/><path d="M696,380.9831 C696,416.5231 696,497.4331 696,523.6131 " fill="none" id="OH-OHI" style="stroke: #383838; stroke-width: 1.0;"/><path d="M590,550.9831 C590,586.5231 590,667.4331 590,693.6131 " fill="none" id="ES-ESI" style="stroke: #383838; stroke-width: 1.0;"/><path d="M205.75,249.2831 C209.21,261.2431 215.61,276.3231 227,284.9531 C288.17,331.2831 508.04,350.9331 623.7,358.2231 " fill="none" id="PDBI&lt;-OH" style="stroke: #383838; stroke-width: 1.0;"/><path d="M195.851,244.4595 A9,9 0 0 0 212.2773 240.4254" fill="none" style="stroke: #383838; stroke-width: 1.5;"/><path d="M880.34,249.4731 C876.01,260.8331 869.05,275.1631 859,284.9531 C829.97,313.2331 788.6,332.6131 754.8,344.8431 " fill="none" id="BDBI&lt;-OH" style="stroke: #383838; stroke-width: 1.0;"/><path d="M874.7012,239.8674 A9,9 0 0 0 890.6862 245.397" fill="none" style="stroke: #383838; stroke-width: 1.5;"/><path d="M696,249.6231 C696,274.7931 696,319.9231 696,344.6331 " fill="none" id="TDBI&lt;-OH" style="stroke: #383838; stroke-width: 1.0;"/><path d="M687.5428,242.6913 A9,9 0 0 0 704.4572 242.6913" fill="none" style="stroke: #383838; stroke-width: 1.5;"/><path d="M651.7,532.9531 C659.98,532.9531 668.26,532.9531 676.55,532.9531 " fill="none" id="ES-&gt;OHI" style="stroke: #383838; stroke-width: 1.0;"/><path d="M683.5718,524.4959 A9,9 0 0 0 683.5718 541.4104" fill="none" style="stroke: #383838; stroke-width: 1.5;"/><path d="M609.29,702.9531 C617.4,702.9531 625.5,702.9531 633.61,702.9531 " fill="none" id="ESI&lt;-DWI" style="stroke: #383838; stroke-width: 1.0;"/><path d="M602.0982,711.4104 A9,9 0 0 0 602.0982 694.4959" fill="none" style="stroke: #383838; stroke-width: 1.5;"/><path d="M546.05,702.9531 C554.27,702.9531 562.49,702.9531 570.71,702.9531 " fill="none" id="MWI-&gt;ESI" style="stroke: #383838; stroke-width: 1.0;"/><path d="M577.6518,694.4959 A9,9 0 0 0 577.6518 711.4104" fill="none" style="stroke: #383838; stroke-width: 1.5;"/><path d="M359.48,702.9531 C367.53,702.9531 375.58,702.9531 383.63,702.9531 " fill="none" id="QRI&lt;-MWI" style="stroke: #383838; stroke-width: 1.0;"/><path d="M352.3582,711.4104 A9,9 0 0 0 352.3582 694.4959" fill="none" style="stroke: #383838; stroke-width: 1.5;"/></g></svg>